<?xml version="1.0" encoding="UTF-8"?>
<svg version="1.1" xmlns="http://www.w3.org/2000/svg" width="131.309" height="46">
<path d="M0 0 C4.42664112 0.32390057 6.59152438 1.45844366 10.34375 3.78125 C11.57042705 4.52020409 12.79833483 5.25711824 14.02734375 5.9921875 C14.65495605 6.37213867 15.28256836 6.75208984 15.92919922 7.14355469 C36.58792337 19.41971568 58.30424983 27.118007 81.3125 33.66796875 C83.15659243 34.20455374 85.00035791 34.74226397 86.84375 35.28125 C87.70613281 35.52311035 88.56851563 35.7649707 89.45703125 36.01416016 C90.25496094 36.25312012 91.05289063 36.49208008 91.875 36.73828125 C92.57173828 36.94042236 93.26847656 37.14256348 93.98632812 37.35083008 C96.52693992 38.62347355 97.3975159 39.82023162 98.84375 42.28125 C99.20210266 45.54467773 99.20210266 45.54467773 99.1809082 49.46484375 C99.1814621 50.18076691 99.18201599 50.89669006 99.18258667 51.63430786 C99.18232722 53.18502181 99.17546613 54.73574568 99.16274452 56.28640747 C99.14436272 58.74125668 99.14703544 61.19525304 99.1558075 63.65014648 C99.17762048 70.62790108 99.166635 77.60532756 99.12866211 84.58300781 C99.10688927 88.85430432 99.11407624 93.12476055 99.1391201 97.39602661 C99.14271623 99.02272974 99.13503664 100.64949835 99.11586952 102.27609253 C99.0895797 104.55089287 99.09994447 106.82284167 99.1184082 109.09765625 C99.11380081 110.39131104 99.10919342 111.68496582 99.10444641 113.01782227 C99.5414738 116.56561066 99.5414738 116.56561066 102.88908386 118.60522461 C103.86412369 119.15831299 104.83916351 119.71140137 105.84375 120.28125 C105.84375 120.94125 105.84375 121.60125 105.84375 122.28125 C106.50375 122.28125 107.16375 122.28125 107.84375 122.28125 C107.84375 122.94125 107.84375 123.60125 107.84375 124.28125 C108.50375 124.28125 109.16375 124.28125 109.84375 124.28125 C119.22438293 135.63675302 120.958665 148.45584003 119.60546875 162.80859375 C117.62063533 173.89559257 110.38456455 184.38100041 101.4609375 191.06640625 C92.2010712 196.97356234 83.53637366 198.58603301 72.65234375 198.97265625 C71.72550781 199.07449219 70.79867187 199.17632812 69.84375 199.28125 C69.51375 199.94125 69.18375 200.60125 68.84375 201.28125 C68.18375 201.28125 67.52375 201.28125 66.84375 201.28125 C66.6375 201.838125 66.43125 202.395 66.21875 202.96875 C64.87528247 205.22821811 63.79217298 206.2811156 61.78125 207.90625 C58.83550287 209.95244397 58.83550287 209.95244397 57.84375 212.28125 C57.18375 212.28125 56.52375 212.28125 55.84375 212.28125 C55.84375 212.94125 55.84375 213.60125 55.84375 214.28125 C54.12805794 215.7244674 52.34262717 217.0851185 50.53125 218.40625 C49.98509033 218.80585938 49.43893066 219.20546875 48.8762207 219.6171875 C47.74480208 220.44420102 46.61155961 221.2687248 45.4765625 222.09082031 C44.01444642 223.15680087 42.56856551 224.24496702 41.125 225.3359375 C34.27662204 230.47222097 27.12232373 234.92101323 19.71484375 239.19091797 C17.89787758 240.24970854 16.10517654 241.34213297 14.3125 242.44140625 C4.08007176 248.45415322 4.08007176 248.45415322 -1.9375 247.11328125 C-6.65203143 245.34533196 -10.85820341 242.88197883 -15.15625 240.28125 C-16.31277781 239.60891207 -17.47037744 238.93841529 -18.62890625 238.26953125 C-25.61220713 234.20204849 -32.40511344 229.87934383 -39.09375 225.34375 C-39.79846436 224.87106689 -40.50317871 224.39838379 -41.22924805 223.91137695 C-42.90972064 222.75488432 -44.53892867 221.52452593 -46.15625 220.28125 C-46.15625 219.62125 -46.15625 218.96125 -46.15625 218.28125 C-46.754375 217.9925 -47.3525 217.70375 -47.96875 217.40625 C-50.15625 216.28125 -50.15625 216.28125 -53.15625 214.28125 C-53.15625 213.62125 -53.15625 212.96125 -53.15625 212.28125 C-53.81625 212.28125 -54.47625 212.28125 -55.15625 212.28125 C-55.15625 211.62125 -55.15625 210.96125 -55.15625 210.28125 C-55.81625 210.28125 -56.47625 210.28125 -57.15625 210.28125 C-57.15625 209.62125 -57.15625 208.96125 -57.15625 208.28125 C-57.97222656 207.98154297 -57.97222656 207.98154297 -58.8046875 207.67578125 C-62.13081237 205.70331185 -64.34168086 202.90732192 -66.78125 199.96875 C-67.27109375 199.39962891 -67.7609375 198.83050781 -68.265625 198.24414062 C-70.93073205 195.0729545 -72.87767606 192.28995537 -74.15625 188.28125 C-74.81625 188.28125 -75.47625 188.28125 -76.15625 188.28125 C-91.61784065 161.16489974 -97.25411637 136.39581988 -97.4296875 105.34765625 C-97.43501118 104.46023176 -97.44033485 103.57280727 -97.44581985 102.65849113 C-97.47233399 97.97782131 -97.49179257 93.29717639 -97.50634766 88.61645508 C-97.51976866 84.75521593 -97.54780037 80.89449502 -97.58837891 77.03344727 C-97.63762269 72.34465525 -97.66245411 67.65633804 -97.66957474 62.96729851 C-97.67628389 61.18787351 -97.6914973 59.40845904 -97.71546555 57.62918282 C-97.74704208 55.14748296 -97.74716839 52.66763849 -97.73974609 50.18579102 C-97.75615143 49.45585937 -97.77255676 48.72592773 -97.78945923 47.97387695 C-97.74171085 44.07356824 -97.27740626 42.43097323 -94.792099 39.35966492 C-91.94443065 37.11422658 -89.88523459 36.24513264 -86.38671875 35.359375 C-84.6994165 34.9113855 -84.6994165 34.9113855 -82.97802734 34.4543457 C-81.77871582 34.14972412 -80.5794043 33.84510254 -79.34375 33.53125 C-69.74070028 30.94331372 -60.34144122 28.11328497 -51.03125 24.59375 C-50.08016357 24.23764648 -49.12907715 23.88154297 -48.14916992 23.51464844 C-41.94884471 21.13071227 -36.05630216 18.32548849 -30.15625 15.28125 C-28.61710937 14.52908203 -28.61710937 14.52908203 -27.046875 13.76171875 C-21.41560085 11.00439369 -15.91202361 8.07710171 -10.46875 4.96875 C-9.85612305 4.61901123 -9.24349609 4.26927246 -8.61230469 3.90893555 C-2.17191425 0.19353691 -2.17191425 0.19353691 0 0 Z M-45.15625 63.28125 C-45.15625 101.23125 -45.15625 139.18125 -45.15625 178.28125 C-17.76625 178.28125 9.62375 178.28125 37.84375 178.28125 C36.5426835 174.27202324 36.5426835 174.27202324 34.9921875 170.359375 C30.61199259 160.00618702 31.51600613 146.20427369 35.4921875 135.90625 C37.365131 132.26862564 39.67578829 129.20243938 42.35546875 126.12109375 C44.05049442 124.24565039 44.05049442 124.24565039 44.84375 121.28125 C46.1590841 120.57973848 47.49492592 119.91599075 48.84375 119.28125 C51.00059484 117.59666404 51.76666968 116.76833426 52.20019531 114.02880859 C52.19084961 113.17109863 52.18150391 112.31338867 52.171875 111.4296875 C52.16414063 110.02976562 52.16414063 110.02976562 52.15625 108.6015625 C52.135625 107.62960938 52.115 106.65765625 52.09375 105.65625 C52.08601563 104.18671875 52.08601563 104.18671875 52.078125 102.6875 C52.44124705 98.14439634 52.44124705 98.14439634 50.84375 94.28125 C49.34174568 94.1605065 47.83464753 94.10171039 46.328125 94.0703125 C45.40644531 94.04195312 44.48476562 94.01359375 43.53515625 93.984375 C41.59002605 93.93271152 39.64468774 93.888319 37.69921875 93.8515625 C32.1386315 93.6659518 27.98272318 93.42022318 23.84375 89.28125 C23.34875 76.41125 23.34875 76.41125 22.84375 63.28125 C0.40375 63.28125 -22.03625 63.28125 -45.15625 63.28125 Z M69.84375 135.28125 C69.68421193 138.35160537 69.74138679 141.00108332 70.03125 144.03125 C70.08861328 144.81757813 70.14597656 145.60390625 70.20507812 146.4140625 C70.31278007 155.06199401 70.31278007 155.06199401 73.84375 162.28125 C76.44655568 161.96083603 76.44655568 161.96083603 78.84375 161.28125 C79.92366894 154.78076705 80.92934224 148.2689966 81.65625 141.71875 C81.76582031 140.76871094 81.87539063 139.81867188 81.98828125 138.83984375 C81.81163409 135.71271158 81.02240652 134.49059183 78.84375 132.28125 C74.86378376 131.56689708 72.54931479 132.29241027 69.84375 135.28125 Z M71.84375 169.28125 C71.06572813 171.5827911 71.06572813 171.5827911 70.84375 174.28125 C72.17528266 176.58629044 72.17528266 176.58629044 73.84375 178.28125 C75.75841367 178.15947312 75.75841367 178.15947312 77.84375 177.28125 C79.61523372 174.80191803 79.61523372 174.80191803 80.84375 172.28125 C80.18375 171.29125 79.52375 170.30125 78.84375 169.28125 C75.26017759 169.03109127 75.26017759 169.03109127 71.84375 169.28125 Z " fill="#2E78A8" transform="translate(178.15625,97.71875)"/>
<path d="M0 0 C0 0.66 0 1.32 0 2 C0.59683594 2.25265625 1.19367188 2.5053125 1.80859375 2.765625 C4.2715894 4.15298084 5.40879139 5.47449695 7.0625 7.75 C7.84173828 8.81347656 7.84173828 8.81347656 8.63671875 9.8984375 C10 12 10 12 11.375 15.375 C12.84154429 18.38536074 12.84154429 18.38536074 16.625 19.125 C17.31851563 19.24875 18.01203125 19.3725 18.7265625 19.5 C22.72026218 20.37833945 26.3241101 22.24714509 30 24 C30 24.66 30 25.32 30 26 C30.66 26 31.32 26 32 26 C32 26.66 32 27.32 32 28 C32.66 28 33.32 28 34 28 C37.2701997 33.48549627 39.15781066 37.26887494 39.0625 43.75 C39.05347656 44.54921875 39.04445313 45.3484375 39.03515625 46.171875 C39.02355469 46.77515625 39.01195312 47.3784375 39 48 C39.886875 48.2475 40.77375 48.495 41.6875 48.75 C49.36809428 51.64833746 53.95148284 58.12102604 58 65 C61.29951793 73.48915706 62.07954028 82.2638145 60.0625 91.125 C59.99161363 95.51995499 60.37146807 95.92033955 63.1875 99 C63.83332031 99.65871094 64.47914063 100.31742187 65.14453125 100.99609375 C70.71256643 107.00957175 71.93999931 113.79566564 72.0546875 121.83203125 C71.56893048 132.59260528 69.43708437 139.80238022 62.625 148.25 C60.24575215 151.20716587 60.24575215 151.20716587 60.125 155 C60.41375 155.99 60.7025 156.98 61 158 C61.60048594 170.20988081 58.15857228 180.09081702 49.99609375 189.21875 C47.87560427 191.11100676 45.96510238 192.0497512 43.375 193.1875 C38.88416317 195.39849121 37.79463373 198.00086719 36.0625 202.625 C35.52302734 204.31496094 35.52302734 204.31496094 34.97265625 206.0390625 C34 209 34 209 32 212 C31.34 212 30.68 212 30 212 C29.34 213.65 28.68 215.3 28 217 C27.34 217 26.68 217 26 217 C25.74992187 217.59941406 25.49984375 218.19882812 25.2421875 218.81640625 C21.74924936 224.9565082 12.83701099 228.57945084 6.51171875 231.08203125 C-2.95250889 233.55599509 -14.20046286 233.55058668 -23.09375 229.1953125 C-28.82607975 225.60085983 -33.84915018 219.45254946 -36 213 C-36.15555183 210.10601583 -36.2547589 207.23319507 -36.30981445 204.33691406 C-36.3301367 203.42687874 -36.35045895 202.51684341 -36.37139702 201.57923126 C-36.43759505 198.47478917 -36.49495372 195.37027025 -36.55078125 192.265625 C-36.57159571 191.16880653 -36.59241016 190.07198807 -36.61385536 188.94193268 C-37.22152912 156.15778533 -37.18753685 123.36754092 -37.18511117 90.57896852 C-37.18546535 83.5301306 -37.19718579 76.48134121 -37.2110464 69.43251872 C-37.22411178 62.53716747 -37.22948777 55.64183804 -37.22884732 48.7464745 C-37.2285941 44.66971134 -37.23135447 40.59300872 -37.24202538 36.51625824 C-37.25170114 32.72353788 -37.25178941 28.93093676 -37.24450874 25.1382122 C-37.24346565 23.75430819 -37.2458094 22.37039665 -37.2518692 20.98650551 C-37.31070943 6.62141886 -37.31070943 6.62141886 -34 0 C-33.34 0 -32.68 0 -32 0 C-32 -0.66 -32 -1.32 -32 -2 C-21.1775839 -7.64647796 -10.62573731 -4.8701296 0 0 Z " fill="#0D4365" transform="translate(364,104)"/>
<path d="M0 0 C4.42664112 0.32390057 6.59152438 1.45844366 10.34375 3.78125 C11.57042705 4.52020409 12.79833483 5.25711824 14.02734375 5.9921875 C14.65495605 6.37213867 15.28256836 6.75208984 15.92919922 7.14355469 C36.58792337 19.41971568 58.30424983 27.118007 81.3125 33.66796875 C83.15659243 34.20455374 85.00035791 34.74226397 86.84375 35.28125 C87.70613281 35.52311035 88.56851563 35.7649707 89.45703125 36.01416016 C90.25496094 36.25312012 91.05289063 36.49208008 91.875 36.73828125 C92.57173828 36.94042236 93.26847656 37.14256348 93.98632812 37.35083008 C96.52693992 38.62347355 97.3975159 39.82023162 98.84375 42.28125 C99.20210266 45.54467773 99.20210266 45.54467773 99.1809082 49.46484375 C99.1814621 50.18076691 99.18201599 50.89669006 99.18258667 51.63430786 C99.18232722 53.18502181 99.17546613 54.73574568 99.16274452 56.28640747 C99.14436272 58.74125668 99.14703544 61.19525304 99.1558075 63.65014648 C99.17762048 70.62790108 99.166635 77.60532756 99.12866211 84.58300781 C99.10688927 88.85430432 99.11407624 93.12476055 99.1391201 97.39602661 C99.14271623 99.02272974 99.13503664 100.64949835 99.11586952 102.27609253 C99.0895797 104.55089287 99.09994447 106.82284167 99.1184082 109.09765625 C99.11380081 110.39131104 99.10919342 111.68496582 99.10444641 113.01782227 C99.5414738 116.56561066 99.5414738 116.56561066 102.88908386 118.60522461 C103.86412369 119.15831299 104.83916351 119.71140137 105.84375 120.28125 C105.84375 120.94125 105.84375 121.60125 105.84375 122.28125 C106.50375 122.28125 107.16375 122.28125 107.84375 122.28125 C107.84375 122.94125 107.84375 123.60125 107.84375 124.28125 C108.50375 124.28125 109.16375 124.28125 109.84375 124.28125 C119.22438293 135.63675302 120.958665 148.45584003 119.60546875 162.80859375 C118.44781734 169.27507083 115.16756586 174.68929564 111.84375 180.28125 C110.19375 180.28125 108.54375 180.28125 106.84375 180.28125 C106.84375 181.60125 106.84375 182.92125 106.84375 184.28125 C104.20375 185.27125 101.56375 186.26125 98.84375 187.28125 C98.84375 186.62125 98.84375 185.96125 98.84375 185.28125 C96.86375 186.60125 94.88375 187.92125 92.84375 189.28125 C91.85375 188.29125 90.86375 187.30125 89.84375 186.28125 C88.85375 187.60125 87.86375 188.92125 86.84375 190.28125 C87.83375 191.27125 88.82375 192.26125 89.84375 193.28125 C86.84375 195.28125 86.84375 195.28125 82.84375 195.28125 C82.51375 193.96125 82.18375 192.64125 81.84375 191.28125 C82.50375 191.28125 83.16375 191.28125 83.84375 191.28125 C83.84375 190.62125 83.84375 189.96125 83.84375 189.28125 C80.21375 188.95125 76.58375 188.62125 72.84375 188.28125 C72.84375 187.95125 72.84375 187.62125 72.84375 187.28125 C73.52179688 187.26707031 74.19984375 187.25289062 74.8984375 187.23828125 C85.34215174 186.70307706 93.57376369 182.82337483 100.84375 175.28125 C106.65174121 168.34392717 108.55904416 159.15089756 107.84375 150.28125 C106.55963258 140.18666031 101.97336115 133.45029186 94.20703125 126.98046875 C86.18065637 121.20943888 76.36677889 121.21360312 66.84375 122.28125 C63.86028808 123.33552857 61.35865956 124.54333908 58.6640625 126.1875 C56.84375 127.28125 56.84375 127.28125 54.84375 127.28125 C54.5034375 128.085625 54.5034375 128.085625 54.15625 128.90625 C52.84375 131.28125 52.84375 131.28125 50.46875 133.90625 C44.72574273 140.73991741 43.15137402 148.32418468 43.4609375 157.10546875 C44.42599617 165.11151673 48.08224778 172.60519379 53.84375 178.28125 C56.32019433 180.00927524 58.82427112 181.5152093 61.4765625 182.95703125 C63.76609542 184.23780957 65.78349577 185.66247882 67.84375 187.28125 C66.668125 187.6834375 66.668125 187.6834375 65.46875 188.09375 C62.56260077 189.12939432 62.56260077 189.12939432 60.84375 192.28125 C60.18375 191.95125 59.52375 191.62125 58.84375 191.28125 C58.51375 192.27125 58.18375 193.26125 57.84375 194.28125 C53.88375 192.30125 53.88375 192.30125 49.84375 190.28125 C49.84375 189.62125 49.84375 188.96125 49.84375 188.28125 C47.96240105 188.29457367 47.96240105 188.29457367 46.04304504 188.3081665 C34.22758841 188.38922583 22.41218813 188.44920282 10.59651661 188.48849869 C4.5218275 188.50938022 -1.55263727 188.53770878 -7.62719727 188.58300781 C-13.48864766 188.6264445 -19.34988218 188.65038284 -25.21148109 188.66075897 C-27.44862581 188.66815419 -29.68575861 188.68259515 -31.92281151 188.70417023 C-35.05451437 188.73317457 -38.18532328 188.73720715 -41.31713867 188.73535156 C-42.24358688 188.74973267 -43.1700351 188.76411377 -44.1245575 188.77893066 C-48.3376779 188.75188919 -50.56086093 188.65251063 -54.20869446 186.37786865 C-57.11915968 183.24464059 -57.28224731 181.53764701 -57.28996277 177.36013794 C-57.29422775 176.31981415 -57.29849274 175.27949036 -57.30288696 174.2076416 C-57.30243378 173.06162476 -57.30198059 171.91560791 -57.30151367 170.73486328 C-57.30487228 169.53155365 -57.3082309 168.32824402 -57.31169128 167.08847046 C-57.31957926 163.78262139 -57.32286979 160.47683511 -57.32350707 157.17098093 C-57.32445571 154.41254047 -57.32813354 151.65410605 -57.33167917 148.89566791 C-57.3398274 142.38763618 -57.34226309 135.87961828 -57.34155273 129.37158203 C-57.34095206 122.65625017 -57.35150089 115.94099867 -57.3672964 109.22568715 C-57.38036958 103.46257083 -57.38573671 97.69948078 -57.38509732 91.93634975 C-57.38484224 88.49331584 -57.38769906 85.05035329 -57.39827538 81.60733414 C-57.40974956 77.76699938 -57.40521088 73.9267749 -57.39916992 70.08642578 C-57.40478943 68.9444574 -57.41040894 67.80248901 -57.41619873 66.62591553 C-57.41200424 65.57995209 -57.40780975 64.53398865 -57.40348816 63.45632935 C-57.40403293 62.54819551 -57.40457769 61.64006168 -57.40513897 60.70440865 C-57.04741438 57.22163704 -55.91174208 55.07962266 -53.5241394 52.5565033 C-50.16611492 50.74800169 -46.99050189 50.85465439 -43.27001953 50.87719727 C-42.4792804 50.87033401 -41.68854126 50.86347076 -40.87384033 50.85639954 C-38.26206459 50.83811125 -35.65088849 50.84197237 -33.0390625 50.84765625 C-31.22069096 50.84309485 -29.40232116 50.83778941 -27.58395386 50.83177185 C-23.77253213 50.82283635 -19.96131987 50.82526819 -16.14990234 50.83520508 C-11.27173044 50.84668528 -6.39428341 50.82650023 -1.51620674 50.79728794 C2.23968074 50.77891628 5.99539492 50.77922049 9.75131607 50.78492546 C11.54940939 50.78507861 13.3475145 50.77903942 15.14556503 50.76663399 C17.66374506 50.75171026 20.18059139 50.76241093 22.69873047 50.77954102 C23.43763519 50.76987305 24.17653992 50.76020508 24.93783569 50.75024414 C32.01757448 50.8507934 36.10742485 54.29632675 40.9296875 59.1015625 C41.63222656 59.80152344 42.33476562 60.50148437 43.05859375 61.22265625 C43.77144531 61.94324219 44.48429688 62.66382813 45.21875 63.40625 C46.32283203 64.49873047 46.32283203 64.49873047 47.44921875 65.61328125 C48.14402344 66.31066406 48.83882812 67.00804687 49.5546875 67.7265625 C50.18681152 68.36094238 50.81893555 68.99532227 51.47021484 69.64892578 C52.84375 71.28125 52.84375 71.28125 52.84375 73.28125 C53.50375 73.28125 54.16375 73.28125 54.84375 73.28125 C54.84375 73.94125 54.84375 74.60125 54.84375 75.28125 C55.50375 75.28125 56.16375 75.28125 56.84375 75.28125 C56.84375 75.94125 56.84375 76.60125 56.84375 77.28125 C57.50375 77.28125 58.16375 77.28125 58.84375 77.28125 C58.84375 77.94125 58.84375 78.60125 58.84375 79.28125 C59.50375 79.28125 60.16375 79.28125 60.84375 79.28125 C63.26579038 82.91431058 63.07677891 84.59944023 63.0390625 88.91796875 C63.02939453 90.86606445 63.02939453 90.86606445 63.01953125 92.85351562 C63.0028206 94.22526307 62.98589071 95.59700786 62.96875 96.96875 C62.95871674 98.35220718 62.94959149 99.73567127 62.94140625 101.11914062 C62.91779967 104.50668452 62.88487037 107.89388072 62.84375 111.28125 C63.50375 110.95125 64.16375 110.62125 64.84375 110.28125 C71.77375 110.28125 78.70375 110.28125 85.84375 110.28125 C86.33875 79.59125 86.33875 79.59125 86.84375 48.28125 C84.53375 47.95125 82.22375 47.62125 79.84375 47.28125 C60.81124243 42.77914415 42.33702731 36.00010685 24.84375 27.28125 C23.43505416 26.58952123 22.02619379 25.89812745 20.6171875 25.20703125 C17.90811297 23.86994226 15.20003211 22.53104756 12.5 21.17578125 C11.89285156 20.8710791 11.28570312 20.56637695 10.66015625 20.25244141 C8.77518928 19.24459213 6.99605215 18.11862617 5.1875 16.98046875 C2.0688824 15.05549335 2.0688824 15.05549335 -0.84375 15.37890625 C-3.18870026 16.29391218 -5.06468048 17.32040901 -7.15625 18.71875 C-26.21296428 30.46757975 -47.83067117 38.27507322 -69.15625 44.78125 C-69.95039307 45.02456055 -70.74453613 45.26787109 -71.56274414 45.51855469 C-72.31547607 45.73930664 -73.06820801 45.96005859 -73.84375 46.1875 C-74.48699219 46.37634766 -75.13023438 46.56519531 -75.79296875 46.75976562 C-79.21986275 47.51594802 -82.6725218 47.85856177 -86.15625 48.28125 C-86.14514694 49.22228073 -86.13404388 50.16331146 -86.12260437 51.13285828 C-86.02120693 60.00502793 -85.94627455 68.87707989 -85.89718914 77.74969769 C-85.87110512 82.31116082 -85.83572938 86.87215587 -85.77905273 91.43334961 C-85.72468957 95.83595689 -85.69482047 100.23811423 -85.68186378 104.64103127 C-85.67263155 106.31999609 -85.65460268 107.99893653 -85.62759972 109.67770958 C-85.59125006 112.03136599 -85.58630681 114.3831682 -85.58862305 116.73706055 C-85.56165848 117.77608017 -85.56165848 117.77608017 -85.53414917 118.83609009 C-85.57514403 122.69113829 -86.01151973 124.11817157 -88.60969543 127.04573059 C-89.87023994 128.1523127 -89.87023994 128.1523127 -91.15625 129.28125 C-92.49188611 132.44826423 -92.49188611 132.44826423 -93.15625 135.28125 C-97.10536099 129.35758351 -97.45634871 122.84315663 -97.46264648 115.92504883 C-97.47097 115.13211929 -97.47929352 114.33918976 -97.48786926 113.52223206 C-97.51176923 110.92753053 -97.52071297 108.33308079 -97.52734375 105.73828125 C-97.53631947 103.92323231 -97.54544148 102.1081841 -97.55470276 100.2931366 C-97.57113663 96.50147712 -97.57888365 92.70990541 -97.58178711 88.91821289 C-97.58719073 84.06239831 -97.62497573 79.20740774 -97.67053127 74.35182667 C-97.70026859 70.60887118 -97.7075098 66.86611596 -97.70851326 63.1230526 C-97.71271574 61.33247761 -97.7251512 59.54190204 -97.74603081 57.75144386 C-97.77290072 55.25009656 -97.76813616 52.75068568 -97.75561523 50.24926758 C-97.77786667 49.14494385 -97.77786667 49.14494385 -97.80056763 48.01831055 C-97.7448139 44.10516927 -97.28293239 42.43794919 -94.79110718 39.35569763 C-91.94418449 37.11428885 -89.88246262 36.24443083 -86.38671875 35.359375 C-84.6994165 34.9113855 -84.6994165 34.9113855 -82.97802734 34.4543457 C-81.77871582 34.14972412 -80.5794043 33.84510254 -79.34375 33.53125 C-69.74070028 30.94331372 -60.34144122 28.11328497 -51.03125 24.59375 C-50.08016357 24.23764648 -49.12907715 23.88154297 -48.14916992 23.51464844 C-41.94884471 21.13071227 -36.05630216 18.32548849 -30.15625 15.28125 C-28.61710937 14.52908203 -28.61710937 14.52908203 -27.046875 13.76171875 C-21.41560085 11.00439369 -15.91202361 8.07710171 -10.46875 4.96875 C-9.85612305 4.61901123 -9.24349609 4.26927246 -8.61230469 3.90893555 C-2.17191425 0.19353691 -2.17191425 0.19353691 0 0 Z M-45.15625 63.28125 C-45.15625 101.23125 -45.15625 139.18125 -45.15625 178.28125 C-17.76625 178.28125 9.62375 178.28125 37.84375 178.28125 C36.5426835 174.27202324 36.5426835 174.27202324 34.9921875 170.359375 C30.61199259 160.00618702 31.51600613 146.20427369 35.4921875 135.90625 C37.365131 132.26862564 39.67578829 129.20243938 42.35546875 126.12109375 C44.05049442 124.24565039 44.05049442 124.24565039 44.84375 121.28125 C46.1590841 120.57973848 47.49492592 119.91599075 48.84375 119.28125 C51.00059484 117.59666404 51.76666968 116.76833426 52.20019531 114.02880859 C52.19084961 113.17109863 52.18150391 112.31338867 52.171875 111.4296875 C52.16414063 110.02976562 52.16414063 110.02976562 52.15625 108.6015625 C52.135625 107.62960938 52.115 106.65765625 52.09375 105.65625 C52.08601563 104.18671875 52.08601563 104.18671875 52.078125 102.6875 C52.44124705 98.14439634 52.44124705 98.14439634 50.84375 94.28125 C49.34174568 94.1605065 47.83464753 94.10171039 46.328125 94.0703125 C45.40644531 94.04195312 44.48476562 94.01359375 43.53515625 93.984375 C41.59002605 93.93271152 39.64468774 93.888319 37.69921875 93.8515625 C32.1386315 93.6659518 27.98272318 93.42022318 23.84375 89.28125 C23.34875 76.41125 23.34875 76.41125 22.84375 63.28125 C0.40375 63.28125 -22.03625 63.28125 -45.15625 63.28125 Z " fill="#114567" transform="translate(178.15625,97.71875)"/>
<path d="M0 0 C6.14840687 -0.52326867 10.75136977 0.69874141 16 4 C21.26115296 8.59081301 24.0119148 13.37304933 26 20 C26.17660156 20.5878125 26.35320312 21.175625 26.53515625 21.78125 C27.1935131 24.92365916 27.35496501 28.04803151 27.5625 31.25 C27.68818359 33.14492187 27.68818359 33.14492187 27.81640625 35.078125 C27.87699219 36.04234375 27.93757813 37.0065625 28 38 C30.90073181 38.67801034 30.90073181 38.67801034 34 39 C36.49399165 36.50600835 36.32932088 35.38557427 36.5625 31.9375 C36.90277778 27.09722222 36.90277778 27.09722222 38 26 C40.25 25.625 40.25 25.625 43 26 C46.68566082 29.08566952 49.69568109 32.15969019 50.22265625 37.078125 C49.63005273 45.11440695 45.29056421 48.90556213 39.640625 54.21875 C33.14943598 60.41295652 29.96749351 64.86571022 29.6875 73.9375 C29.8302277 78.78272974 30.73700337 83.33142316 32 88 C34.97 88.495 34.97 88.495 38 89 C37.99363525 88.43603516 37.98727051 87.87207031 37.98071289 87.29101562 C37.91852473 68.88331915 37.91852473 68.88331915 42.125 64.1875 C43.38658654 63.08945245 44.67909345 62.02592149 46 61 C47.26195814 59.72001389 48.51233874 58.4284943 49.75 57.125 C51.79265209 55.0728028 53.55669625 53.62886916 56 52 C59.51490948 52.09249762 60.86924424 52.88837923 63.5625 55.1875 C70.20499312 62.85191514 72.41493143 69.04045035 72.265625 79.09375 C71.90922721 82.99316114 70.77180952 85.52725334 69 89 C68.30859478 91.77888613 68.30859478 91.77888613 68 94 C68.66 94 69.32 94 70 94 C70 94.66 70 95.32 70 96 C70.680625 96.165 71.36125 96.33 72.0625 96.5 C76.35118222 98.68996539 79.32759558 102.01294502 82 106 C84.40021239 114.37346823 83.75197965 123.21811629 80 131 C78.4375 133.5 78.4375 133.5 77 135 C76.34 135 75.68 135 75 135 C75 135.66 75 136.32 75 137 C73.03852126 138.38938077 71.03833424 139.7260411 69 141 C69.44821816 143.61460594 69.96291873 145.91318957 71.0078125 148.359375 C73.13643119 154.02451766 72.85088469 159.56470932 70.8671875 165.2421875 C68.21742097 170.91629488 65.96817102 175.42549485 60 178 C57.0210319 178.83156745 54.04903753 179.48505144 51 180 C50.92523438 180.75023437 50.85046875 181.50046875 50.7734375 182.2734375 C49.3575187 193.29539363 44.80322547 202.03542289 36 209 C28.39502281 213.79444214 19.97899815 216.13818286 11 215 C5.63735603 213.29830337 2.12428949 210.74892003 -1 206 C-2.47905238 203.04189524 -2.12190903 200.0452845 -2.09765625 196.8046875 C-2.0962413 196.09724396 -2.09482635 195.38980042 -2.09336853 194.66091919 C-2.087766 192.39890331 -2.07521318 190.13698602 -2.0625 187.875 C-2.05748532 186.34244935 -2.05292236 184.80989714 -2.04882812 183.27734375 C-2.03779577 179.51819112 -2.02052952 175.75911228 -2 172 C-1.34 172 -0.68 172 0 172 C0 172.66 0 173.32 0 174 C0.66 174 1.32 174 2 174 C6.76744186 178.30232558 6.76744186 178.30232558 8 182 C8.66 182 9.32 182 10 182 C10.99 185.3 11.98 188.6 13 192 C14.258125 192.185625 15.51625 192.37125 16.8125 192.5625 C17.52019531 192.66691406 18.22789062 192.77132812 18.95703125 192.87890625 C21.2025342 193.13904799 21.2025342 193.13904799 24 192 C24.22245393 190.39773045 24.42746669 188.79303233 24.625 187.1875 C24.74101562 186.29417969 24.85703125 185.40085937 24.9765625 184.48046875 C25.23500743 181.74309609 25.23500743 181.74309609 23 179 C21.845 178.525625 20.69 178.05125 19.5 177.5625 C15.75229095 175.8894156 15.47702882 175.52214566 14 172 C13.39414062 171.70222656 12.78828125 171.40445313 12.1640625 171.09765625 C9.08426506 169.53552072 7.18520392 167.18194025 4.87890625 164.65625 C2.71430452 162.56153673 2.71430452 162.56153673 -2 161 C-2 153.08 -2 145.16 -2 137 C2.64785054 140.98387189 7.12016468 144.93808166 11.4375 149.25 C11.97826172 149.77851563 12.51902344 150.30703125 13.07617188 150.8515625 C14.42462488 152.19490127 15.71765287 153.59341891 17 155 C17 155.66 17 156.32 17 157 C17.55429687 157.22558594 18.10859375 157.45117188 18.6796875 157.68359375 C21.68506155 159.38866286 23.72987003 161.57799951 26.125 164.0625 C29.24105765 167.46453483 29.24105765 167.46453483 33 170 C33.6328125 172.28515625 33.6328125 172.28515625 34.125 175.0625 C34.37636719 176.44115234 34.37636719 176.44115234 34.6328125 177.84765625 C34.75398438 178.55792969 34.87515625 179.26820313 35 180 C36.43739513 180.02712066 37.87493863 180.04645067 39.3125 180.0625 C40.11300781 180.07410156 40.91351563 180.08570313 41.73828125 180.09765625 C44.16861334 180.09657855 44.16861334 180.09657855 47 179 C48.25501301 175.23496096 48.43566049 171.93738442 48 168 C47.08333333 165.91666667 47.08333333 165.91666667 45 165 C43.96875 164.95875 42.9375 164.9175 41.875 164.875 C36.01166141 163.55102032 32.80912032 159.49147974 29 155 C29 154.67 29 154.34 29 154 C31.93774463 153.94609643 34.87450232 153.9063745 37.8125 153.875 C38.64587891 153.85824219 39.47925781 153.84148437 40.33789062 153.82421875 C41.14033203 153.81777344 41.94277344 153.81132812 42.76953125 153.8046875 C43.50792236 153.79421387 44.24631348 153.78374023 45.00708008 153.77294922 C47 154 47 154 50 156 C53.57443322 156.32494847 56.12655931 156.38073056 59.4375 154.9375 C61.30372252 152.95986102 61.30372252 152.95986102 61.5 149.5625 C61.24947866 146.02184976 61.24947866 146.02184976 59.4375 143.5 C56.98005462 141.68571107 56.98005462 141.68571107 53.5 142.0625 C50.0778977 142.72271816 50.0778977 142.72271816 48.12280273 144.53149414 C44.04088265 147.35527209 38.86556386 146.46878106 34.0625 146.4375 C32.97775391 146.45748047 31.89300781 146.47746094 30.77539062 146.49804688 C22.87224364 146.49318938 22.87224364 146.49318938 18.74609375 144.16015625 C17 142 17 142 17 139 C17.90363281 138.93941406 18.80726563 138.87882813 19.73828125 138.81640625 C20.91777344 138.73261719 22.09726562 138.64882812 23.3125 138.5625 C24.48425781 138.48128906 25.65601563 138.40007812 26.86328125 138.31640625 C30.02590958 138.1132629 30.02590958 138.1132629 33 137 C33 136.34 33 135.68 33 135 C33.66 135 34.32 135 35 135 C35.66 133.68 36.32 132.36 37 131 C37.66 131 38.32 131 39 131 C39 130.34 39 129.68 39 129 C39.66 129 40.32 129 41 129 C41 128.34 41 127.68 41 127 C41.66 127 42.32 127 43 127 C43 126.34 43 125.68 43 125 C46.84942509 122.43371661 50.04297887 122.70535538 54.5 122.75 C55.27214844 122.74226563 56.04429687 122.73453125 56.83984375 122.7265625 C60.73631468 122.74006847 62.68987247 122.79324831 66 125 C68.77715788 125.16497968 71.33278593 124.78176964 74 124 C75.77340479 122.45437518 75.77340479 122.45437518 76 120 C75.92421045 116.38537214 75.92421045 116.38537214 75 113 C71.51131349 110.67420899 70.10281481 110.58134543 66 111 C65.17628906 111.73476562 65.17628906 111.73476562 64.3359375 112.484375 C60.93315681 114.69219926 57.49724023 114.49193677 53.5625 114.5625 C45.37055711 114.75235619 40.88917028 115.74817272 35.03710938 121.74804688 C34.46798828 122.34681641 33.89886719 122.94558594 33.3125 123.5625 C32.164919 124.75338595 31.01527385 125.94228729 29.86328125 127.12890625 C29.36094971 127.65556885 28.85861816 128.18223145 28.34106445 128.72485352 C25.13702294 131.77140527 21.3475594 131.25693376 17.1875 131.3125 C16.47529297 131.34150391 15.76308594 131.37050781 15.02929688 131.40039062 C11.27745425 131.44550992 9.19115843 131.12024881 5.98828125 129.10546875 C4 127 4 127 4 125 C5.02480469 124.95101562 6.04960937 124.90203125 7.10546875 124.8515625 C8.4661706 124.77648929 9.82684644 124.70094345 11.1875 124.625 C11.86103516 124.5940625 12.53457031 124.563125 13.22851562 124.53125 C21.96593388 124.01979137 25.62020913 120.77502927 31.4609375 114.69140625 C32.91656307 113.20758066 34.37229557 111.72385995 35.828125 110.24023438 C38.10446269 107.90178351 40.37735042 105.56007256 42.64746094 103.21557617 C44.84752214 100.94894044 47.05983008 98.69480284 49.2734375 96.44140625 C49.94345795 95.7413295 50.61347839 95.04125275 51.30380249 94.31996155 C55.34901376 90.21203113 58.65139457 88.0808444 64 86 C66.32038095 83.17431454 66.32038095 83.17431454 65.8125 79.9375 C65.26245502 76.70259047 65.26245502 76.70259047 62 75 C57.91297291 74.55476219 57.91297291 74.55476219 54.25 76.125 C52.83928476 78.01348367 52.83928476 78.01348367 52.33862305 80.64306641 C50.52379919 85.19419316 47.69644046 88.08324828 44.33203125 91.5859375 C43.66016281 92.28772125 42.98829437 92.989505 42.29606628 93.71255493 C40.87043023 95.18900404 39.43865928 96.6595508 38.0012207 98.12451172 C35.829756 100.35725703 33.71442769 102.63527912 31.59570312 104.91796875 C20.23749467 116.73667853 20.23749467 116.73667853 12.48625183 117.06265259 C9.60343062 116.94081739 6.82529189 116.57690414 4 116 C7.12028593 112.27087779 10.2850007 108.59727248 13.625 105.0625 C14.17414063 104.47597656 14.72328125 103.88945312 15.2890625 103.28515625 C17 102 17 102 21 102 C21 101.34 21 100.68 21 100 C21.66 100 22.32 100 23 100 C23.19573608 98.56359829 23.38127816 97.12580496 23.5625 95.6875 C23.66691406 94.88699219 23.77132813 94.08648437 23.87890625 93.26171875 C24.14755178 90.83182884 24.14755178 90.83182884 23 88 C17.5555029 86.70619935 17.5555029 86.70619935 12.5625 88.4375 C10.77387407 91.37084652 10.72305666 93.6767715 10.4609375 97.046875 C9.63261993 100.55669522 6.81566956 101.99654281 4 104 C3.071875 104.928125 2.14375 105.85625 1.1875 106.8125 C0.1046875 107.8953125 0.1046875 107.8953125 -1 109 C-1.33 109 -1.66 109 -2 109 C-2.11608127 104.58355402 -2.1872132 100.16749983 -2.25 95.75 C-2.28351563 94.49574219 -2.31703125 93.24148437 -2.3515625 91.94921875 C-2.36445313 90.74394531 -2.37734375 89.53867188 -2.390625 88.296875 C-2.4220459 86.63156738 -2.4220459 86.63156738 -2.45410156 84.93261719 C-1.89905801 81.34811011 -0.84559114 80.17619592 2 78 C2.66 78 3.32 78 4 78 C4 77.34 4 76.68 4 76 C5.609375 74.44921875 5.609375 74.44921875 7.75 72.6875 C9.1974289 71.49471137 10.61321526 70.26278392 12 69 C12.73476563 68.34902344 13.46953125 67.69804687 14.2265625 67.02734375 C17.0355547 62.23225794 16.59916195 57.3332872 16.625 51.875 C16.65049219 49.70561479 16.68397861 47.53630452 16.7265625 45.3671875 C16.73252441 44.40925293 16.73848633 43.45131836 16.74462891 42.46435547 C17 40 17 40 19 37 C19.00082535 33.42243314 19.00082535 33.42243314 18 30 C16.38558027 28.3175507 16.38558027 28.3175507 14 28 C9.48569844 28.3360671 9.48569844 28.3360671 6 31 C5.68462284 35.33643601 5.55102153 37.32653229 8 41 C8.22705078 43.17651367 8.22705078 43.17651367 8.1953125 45.66796875 C8.18564453 47.00698242 8.18564453 47.00698242 8.17578125 48.37304688 C8.15064453 49.76620117 8.15064453 49.76620117 8.125 51.1875 C8.11597656 52.12787109 8.10695313 53.06824219 8.09765625 54.03710938 C8.07409056 56.35832968 8.04119116 58.67903644 8 61 C7.36578125 61.28617188 6.7315625 61.57234375 6.078125 61.8671875 C3.58438799 63.22655542 3.03567876 64.41080309 2 67 C1.34 67 0.68 67 0 67 C0 67.66 0 68.32 0 69 C-0.66 69 -1.32 69 -2 69 C-2 46.89 -2 24.78 -2 2 C-1.34 2 -0.68 2 0 2 C0 1.34 0 0.68 0 0 Z " fill="#2E76A5" transform="translate(341,110)"/>
<path d="M0 0 C2.8886526 2.09371332 3.67333081 4.15790001 5.015625 7.4609375 C5.29648284 10.37289058 5.42567571 13.06617039 5.40330505 15.97369385 C5.40869059 16.81706008 5.41407613 17.66042631 5.41962487 18.52934909 C5.43390313 21.34816611 5.42680097 24.16651345 5.41967773 26.98535156 C5.42538149 29.00939816 5.43234577 31.03344155 5.44047546 33.05747986 C5.45842458 38.55146879 5.45723476 44.04529814 5.45153308 49.53930759 C5.44844275 54.12907904 5.45453219 58.71881976 5.46057183 63.30858684 C5.47462217 74.14048361 5.47305244 84.97230152 5.46166992 95.80419922 C5.4501972 106.96841991 5.46424909 118.13240014 5.4910664 129.29658914 C5.51324349 138.88916089 5.51985596 148.48165728 5.51398998 158.07425284 C5.51062295 163.80005126 5.5130184 169.52569567 5.53024101 175.25147247 C5.5457392 180.63927869 5.54172248 186.02672983 5.52293587 191.41452217 C5.51925749 193.38732143 5.52233644 195.36014716 5.53282166 197.33292198 C5.62680989 216.48540116 5.62680989 216.48540116 1.015625 224.4609375 C0.355625 224.4609375 -0.304375 224.4609375 -0.984375 224.4609375 C-1.36722656 225.36972656 -1.36722656 225.36972656 -1.7578125 226.296875 C-4.3797577 230.92285474 -9.8995156 233.34394727 -14.859375 234.8359375 C-23.25868451 236.56182302 -32.90941776 234.6396562 -40.1484375 230.10546875 C-44.09767691 227.22858836 -47.73749619 224.11367616 -50.984375 220.4609375 C-50.984375 219.8009375 -50.984375 219.1409375 -50.984375 218.4609375 C-51.644375 218.4609375 -52.304375 218.4609375 -52.984375 218.4609375 C-53.99134068 216.36009541 -54.9897339 214.25514261 -55.984375 212.1484375 C-56.8196875 210.39080078 -56.8196875 210.39080078 -57.671875 208.59765625 C-58.984375 205.4609375 -58.984375 205.4609375 -58.984375 202.4609375 C-57.95699219 202.25339844 -56.92960937 202.04585937 -55.87109375 201.83203125 C-40.83343625 198.57848193 -29.79948824 191.83055353 -20.734375 179.1484375 C-13.31327254 167.48092764 -10.97282426 153.4093678 -13.703125 139.90625 C-17.07581933 128.34661219 -22.42689625 119.93435457 -30.984375 111.4609375 C-31.644375 111.1309375 -32.304375 110.8009375 -32.984375 110.4609375 C-32.99650528 109.10576775 -32.99650528 109.10576775 -33.00888062 107.72322083 C-33.08686075 99.20400853 -33.17416189 90.68495352 -33.27190208 82.1659441 C-33.3218219 77.78636142 -33.36815231 73.40680235 -33.40625 69.02709961 C-33.44315734 64.79947959 -33.48953206 60.57205922 -33.54243851 56.34461021 C-33.56095351 54.7327392 -33.57607215 53.12082543 -33.58771896 51.50889015 C-33.60463112 49.24896479 -33.63367751 46.98949377 -33.66552734 44.72973633 C-33.68551285 42.80113518 -33.68551285 42.80113518 -33.7059021 40.83357239 C-33.97472852 37.57776771 -34.47604199 35.34270911 -35.984375 32.4609375 C-38.1226741 31.0167435 -38.1226741 31.0167435 -40.609375 30.1484375 C-41.42664063 29.82230469 -42.24390625 29.49617188 -43.0859375 29.16015625 C-43.71242188 28.92941406 -44.33890625 28.69867188 -44.984375 28.4609375 C-44.13519726 21.66751558 -42.01010899 15.06195871 -37.984375 9.4609375 C-37.324375 9.4609375 -36.664375 9.4609375 -35.984375 9.4609375 C-35.984375 8.8009375 -35.984375 8.1409375 -35.984375 7.4609375 C-35.324375 7.4609375 -34.664375 7.4609375 -33.984375 7.4609375 C-33.984375 6.8009375 -33.984375 6.1409375 -33.984375 5.4609375 C-30.984375 3.4609375 -30.984375 3.4609375 -27.984375 3.4609375 C-27.984375 2.8009375 -27.984375 2.1409375 -27.984375 1.4609375 C-26.40139474 0.9806057 -24.81797522 0.50172138 -23.234375 0.0234375 C-22.35265625 -0.24339844 -21.4709375 -0.51023437 -20.5625 -0.78515625 C-12.95951938 -3.0084521 -7.40644533 -3.02990945 0 0 Z " fill="#3077A5" transform="translate(316.984375,100.5390625)"/>
<path d="M0 0 C0.33 0 0.66 0 1 0 C1.00364563 0.9976387 1.00729126 1.9952774 1.01104736 3.02314758 C1.04828298 12.50933004 1.1063604 21.9951964 1.18390274 31.48113728 C1.22310639 36.35584506 1.25542579 41.23037951 1.27099609 46.10522461 C1.28634389 50.82578918 1.32110096 55.54587629 1.36830902 60.26622581 C1.38293876 62.05073032 1.39103018 63.83530306 1.39188385 65.61986732 C1.41812575 93.01761003 8.9422503 117.69954987 26.08203125 139.44140625 C27.69388573 141.59163982 28.91316756 143.55606462 30 146 C30.66 146 31.32 146 32 146 C34.125 147.875 34.125 147.875 36 150 C36 150.66 36 151.32 36 152 C37.32 152.66 38.64 153.32 40 154 C40 154.66 40 155.32 40 156 C40.83917969 156.36931641 40.83917969 156.36931641 41.6953125 156.74609375 C44.41869167 158.22779666 46.52585353 160.03823549 48.875 162.0625 C59.2407077 170.65240917 71.04646585 177.83091121 83 184 C83.91910156 184.51046875 84.83820313 185.0209375 85.78515625 185.546875 C91.04061044 186.28761946 94.54729902 183.49980392 98.9375 180.8125 C99.8661084 180.26166748 100.7947168 179.71083496 101.75146484 179.14331055 C109.87864464 174.24555263 117.55577874 168.87524979 125 163 C126.02867187 162.19433594 127.05734375 161.38867188 128.1171875 160.55859375 C138.00250679 153.01110203 138.00250679 153.01110203 145 143 C145.66 143 146.32 143 147 143 C147.66 142.01 148.32 141.02 149 140 C151.125 139.3125 151.125 139.3125 153 139 C152.13117188 138.50371094 151.26234375 138.00742187 150.3671875 137.49609375 C140.33233724 131.6364969 132.99353215 125.58332104 129.41796875 114.13671875 C127.28484638 103.23187825 129.59394534 93.94891067 135.46875 84.68359375 C140.26362826 78.49020933 147.13539364 73.94433842 154.94677734 72.68652344 C164.50357129 71.77329319 173.35554843 72.8502464 181.2421875 78.6484375 C188.81134163 84.9976547 193.96848428 91.89114594 195 102 C195.67040192 111.88842837 193.44401867 120.38645302 186.9453125 128 C181.0931513 134.01667979 174.88810823 137.25209345 167 140 C167.99 140.33 168.98 140.66 170 141 C169.67 142.98 169.34 144.96 169 147 C170.98 146.34 172.96 145.68 175 145 C174.34 144.34 173.68 143.68 173 143 C173 140 173 140 174.5 138.3125 C174.995 137.879375 175.49 137.44625 176 137 C178 138 178 138 180 140 C180.4125 139.505 180.825 139.01 181.25 138.5 C183 137 183 137 187 137 C189.00401011 136.69169075 191.00511766 136.36270588 193 136 C193 134.68 193 133.36 193 132 C194.32 132.33 195.64 132.66 197 133 C190.03414743 142.08790038 181.35864176 147.9088693 170 150 C166.2669502 150.33042801 162.55381482 150.55836826 158.80859375 150.69140625 C157.88175781 150.79324219 156.95492187 150.89507812 156 151 C155.67 151.66 155.34 152.32 155 153 C154.34 153 153.68 153 153 153 C152.79375 153.556875 152.5875 154.11375 152.375 154.6875 C151.03153247 156.94696811 149.94842298 157.9998656 147.9375 159.625 C144.99175287 161.67119397 144.99175287 161.67119397 144 164 C143.34 164 142.68 164 142 164 C142 164.66 142 165.32 142 166 C140.28430794 167.4432174 138.49887717 168.8038685 136.6875 170.125 C136.14134033 170.52460938 135.59518066 170.92421875 135.0324707 171.3359375 C133.90105208 172.16295102 132.76780961 172.9874748 131.6328125 173.80957031 C130.17069642 174.87555087 128.72481551 175.96371702 127.28125 177.0546875 C120.43287204 182.19097097 113.27857373 186.63976323 105.87109375 190.90966797 C104.05412758 191.96845854 102.26142654 193.06088297 100.46875 194.16015625 C90.23632176 200.17290322 90.23632176 200.17290322 84.21875 198.83203125 C79.50421857 197.06408196 75.29804659 194.60072883 71 192 C69.84347219 191.32766207 68.68587256 190.65716529 67.52734375 189.98828125 C60.54404287 185.92079849 53.75113656 181.59809383 47.0625 177.0625 C46.35778564 176.58981689 45.65307129 176.11713379 44.92700195 175.63012695 C43.24652936 174.47363432 41.61732133 173.24327593 40 172 C40 171.34 40 170.68 40 170 C39.401875 169.71125 38.80375 169.4225 38.1875 169.125 C36 168 36 168 33 166 C33 165.34 33 164.68 33 164 C32.34 164 31.68 164 31 164 C31 163.34 31 162.68 31 162 C30.34 162 29.68 162 29 162 C29 161.34 29 160.68 29 160 C28.18402344 159.70029297 28.18402344 159.70029297 27.3515625 159.39453125 C24.02543763 157.42206185 21.81456914 154.62607192 19.375 151.6875 C18.88515625 151.11837891 18.3953125 150.54925781 17.890625 149.96289062 C15.22551795 146.7917045 13.27857394 144.00870537 12 140 C11.34 140 10.68 140 10 140 C0.17760488 122.7736025 -11.10634334 102.46735177 -10 82 C-9.01 82.66 -8.02 83.32 -7 84 C-6.566875 83.236875 -6.13375 82.47375 -5.6875 81.6875 C-4 79 -4 79 -2.42155457 77.78935242 C-0.2246468 75.02404019 -0.56068423 72.06871833 -0.56762695 68.68286133 C-0.55233948 67.57029716 -0.55233948 67.57029716 -0.53674316 66.43525696 C-0.50655337 63.98410549 -0.49733837 61.53334441 -0.48828125 59.08203125 C-0.47143895 57.38236689 -0.45328932 55.68271503 -0.43388367 53.983078 C-0.38632858 49.50985619 -0.35655498 45.036685 -0.33044434 40.56329346 C-0.30066651 35.99847411 -0.25412669 31.43382932 -0.20898438 26.86914062 C-0.12288867 17.91285162 -0.05557135 8.95652676 0 0 Z M156 87 C155.84046193 90.07035537 155.89763679 92.71983332 156.1875 95.75 C156.24486328 96.53632813 156.30222656 97.32265625 156.36132812 98.1328125 C156.46903007 106.78074401 156.46903007 106.78074401 160 114 C162.60280568 113.67958603 162.60280568 113.67958603 165 113 C166.07991894 106.49951705 167.08559224 99.9877466 167.8125 93.4375 C167.92207031 92.48746094 168.03164063 91.53742188 168.14453125 90.55859375 C167.96788409 87.43146158 167.17865652 86.20934183 165 84 C161.02003376 83.28564708 158.70556479 84.01116027 156 87 Z M158 121 C157.22197813 123.3015411 157.22197813 123.3015411 157 126 C158.33153266 128.30504044 158.33153266 128.30504044 160 130 C161.91466367 129.87822312 161.91466367 129.87822312 164 129 C165.77148372 126.52066803 165.77148372 126.52066803 167 124 C166.34 123.01 165.68 122.02 165 121 C161.41642759 120.74984127 161.41642759 120.74984127 158 121 Z " fill="#144768" transform="translate(92,146)"/>
<path d="M0 0 C2.8886526 2.09371332 3.67333081 4.15790001 5.015625 7.4609375 C5.29648284 10.37289058 5.42567571 13.06617039 5.40330505 15.97369385 C5.40869059 16.81706008 5.41407613 17.66042631 5.41962487 18.52934909 C5.43390313 21.34816611 5.42680097 24.16651345 5.41967773 26.98535156 C5.42538149 29.00939816 5.43234577 31.03344155 5.44047546 33.05747986 C5.45842458 38.55146879 5.45723476 44.04529814 5.45153308 49.53930759 C5.44844275 54.12907904 5.45453219 58.71881976 5.46057183 63.30858684 C5.47462217 74.14048361 5.47305244 84.97230152 5.46166992 95.80419922 C5.4501972 106.96841991 5.46424909 118.13240014 5.4910664 129.29658914 C5.51324349 138.88916089 5.51985596 148.48165728 5.51398998 158.07425284 C5.51062295 163.80005126 5.5130184 169.52569567 5.53024101 175.25147247 C5.5457392 180.63927869 5.54172248 186.02672983 5.52293587 191.41452217 C5.51925749 193.38732143 5.52233644 195.36014716 5.53282166 197.33292198 C5.62680989 216.48540116 5.62680989 216.48540116 1.015625 224.4609375 C0.355625 224.4609375 -0.304375 224.4609375 -0.984375 224.4609375 C-1.36722656 225.36972656 -1.36722656 225.36972656 -1.7578125 226.296875 C-4.3797577 230.92285474 -9.8995156 233.34394727 -14.859375 234.8359375 C-23.25868451 236.56182302 -32.90941776 234.6396562 -40.1484375 230.10546875 C-44.09767691 227.22858836 -47.73749619 224.11367616 -50.984375 220.4609375 C-50.984375 219.8009375 -50.984375 219.1409375 -50.984375 218.4609375 C-51.644375 218.4609375 -52.304375 218.4609375 -52.984375 218.4609375 C-53.99134068 216.36009541 -54.9897339 214.25514261 -55.984375 212.1484375 C-56.8196875 210.39080078 -56.8196875 210.39080078 -57.671875 208.59765625 C-58.984375 205.4609375 -58.984375 205.4609375 -58.984375 202.4609375 C-54.9316234 201.47845226 -51.14575763 201.37934176 -46.984375 201.4609375 C-46.6440625 202.17378906 -46.30375 202.88664063 -45.953125 203.62109375 C-42.21203208 211.01373216 -38.20107188 216.84386548 -30.6484375 220.6328125 C-27.45856283 221.62438644 -24.75823395 221.69096351 -21.421875 221.6484375 C-20.30683594 221.64199219 -19.19179688 221.63554687 -18.04296875 221.62890625 C-15.50878041 221.48973626 -13.39745507 221.19843141 -10.984375 220.4609375 C-10.984375 219.8009375 -10.984375 219.1409375 -10.984375 218.4609375 C-10.324375 218.4609375 -9.664375 218.4609375 -8.984375 218.4609375 C-7.06253982 213.62309724 -6.7025258 209.25582956 -6.73713684 204.11540222 C-6.73472243 203.29018721 -6.73230801 202.46497221 -6.72982043 201.61475068 C-6.72419808 198.85791335 -6.73283534 196.10130924 -6.74145508 193.34448242 C-6.74038187 191.36494891 -6.73844262 189.3854157 -6.73570251 187.40588379 C-6.73085877 182.03647739 -6.73850287 176.6671542 -6.74865556 171.29775786 C-6.75743857 165.6834763 -6.7556786 160.06919732 -6.7552948 154.45491028 C-6.75623099 145.03218187 -6.76491096 135.60948569 -6.77856445 126.18676758 C-6.79431226 115.27806705 -6.79956175 104.36940175 -6.7988289 93.46069068 C-6.79821965 82.97737779 -6.80331422 72.49407642 -6.81162071 62.01076698 C-6.81515969 57.54306257 -6.81698483 53.07536223 -6.81751442 48.60765648 C-6.81851528 43.3554161 -6.8245907 38.10320558 -6.83468056 32.85097504 C-6.83761317 30.91793564 -6.8388294 28.98489281 -6.83825302 27.05185127 C-6.83776597 24.42505346 -6.8433818 21.7983406 -6.85066223 19.17155457 C-6.84833933 18.00894199 -6.84833933 18.00894199 -6.8459695 16.8228423 C-6.54662841 13.35104244 -6.54662841 13.35104244 -7.984375 10.4609375 C-15.57590481 9.85361512 -20.47035221 12.03300426 -26.234375 16.6484375 C-30.15757621 20.20668976 -31.56527031 23.40537703 -32.984375 28.4609375 C-31.746875 28.7703125 -31.746875 28.7703125 -30.484375 29.0859375 C-23.61236146 31.7856571 -18.58079688 35.95971334 -14.984375 42.4609375 C-14.571875 43.2034375 -14.159375 43.9459375 -13.734375 44.7109375 C-12.33164585 49.85427771 -12.29823031 55.40250342 -13.984375 60.4609375 C-16.984375 62.4609375 -16.984375 62.4609375 -20.984375 62.4609375 C-20.984375 61.8009375 -20.984375 61.1409375 -20.984375 60.4609375 C-21.644375 60.4609375 -22.304375 60.4609375 -22.984375 60.4609375 C-23.10554688 59.64109375 -23.22671875 58.82125 -23.3515625 57.9765625 C-23.60292969 56.36007813 -23.60292969 56.36007813 -23.859375 54.7109375 C-24.02179688 53.64359375 -24.18421875 52.57625 -24.3515625 51.4765625 C-25.257975 47.15711526 -26.12042478 45.13975553 -29.609375 42.3984375 C-30.393125 41.7590625 -31.176875 41.1196875 -31.984375 40.4609375 C-31.984375 39.4709375 -31.984375 38.4809375 -31.984375 37.4609375 C-32.644375 37.4609375 -33.304375 37.4609375 -33.984375 37.4609375 C-34.12875 36.7184375 -34.273125 35.9759375 -34.421875 35.2109375 C-36.80169118 31.02246102 -40.5982344 30.07640904 -44.984375 28.4609375 C-44.13519726 21.66751558 -42.01010899 15.06195871 -37.984375 9.4609375 C-37.324375 9.4609375 -36.664375 9.4609375 -35.984375 9.4609375 C-35.984375 8.8009375 -35.984375 8.1409375 -35.984375 7.4609375 C-35.324375 7.4609375 -34.664375 7.4609375 -33.984375 7.4609375 C-33.984375 6.8009375 -33.984375 6.1409375 -33.984375 5.4609375 C-30.984375 3.4609375 -30.984375 3.4609375 -27.984375 3.4609375 C-27.984375 2.8009375 -27.984375 2.1409375 -27.984375 1.4609375 C-26.40139474 0.9806057 -24.81797522 0.50172138 -23.234375 0.0234375 C-22.35265625 -0.24339844 -21.4709375 -0.51023437 -20.5625 -0.78515625 C-12.95951938 -3.0084521 -7.40644533 -3.02990945 0 0 Z " fill="#134567" transform="translate(316.984375,100.5390625)"/>
<path d="M0 0 C8.08012271 4.95233327 13.89339112 11.41599017 17.1796875 20.3359375 C19.36378313 29.66798245 18.65176234 39.47566304 13.703125 47.828125 C8.952159 54.27121588 2.96838745 59.96315049 -4.8203125 62.3359375 C-14.6978115 63.52257249 -25.1141718 63.8546537 -33.625 58.171875 C-41.35651061 51.70602093 -47.09931935 43.75186701 -48.09375 33.5234375 C-48.41867287 23.32585811 -46.0527589 15.09190993 -39.7578125 6.9609375 C-29.35717092 -3.70753176 -13.49804236 -6.40816152 0 0 Z M-20.8203125 11.3359375 C-20.97985057 14.40629287 -20.92267571 17.05577082 -20.6328125 20.0859375 C-20.57544922 20.87226563 -20.51808594 21.65859375 -20.45898438 22.46875 C-20.35128243 31.11668151 -20.35128243 31.11668151 -16.8203125 38.3359375 C-14.21750682 38.01552353 -14.21750682 38.01552353 -11.8203125 37.3359375 C-10.74039356 30.83545455 -9.73472026 24.3236841 -9.0078125 17.7734375 C-8.89824219 16.82339844 -8.78867187 15.87335938 -8.67578125 14.89453125 C-8.85242841 11.76739908 -9.64165598 10.54527933 -11.8203125 8.3359375 C-15.80027874 7.62158458 -18.11474771 8.34709777 -20.8203125 11.3359375 Z M-18.8203125 45.3359375 C-19.59833437 47.6374786 -19.59833437 47.6374786 -19.8203125 50.3359375 C-18.48877984 52.64097794 -18.48877984 52.64097794 -16.8203125 54.3359375 C-14.90564883 54.21416062 -14.90564883 54.21416062 -12.8203125 53.3359375 C-11.04882878 50.85660553 -11.04882878 50.85660553 -9.8203125 48.3359375 C-10.4803125 47.3459375 -11.1403125 46.3559375 -11.8203125 45.3359375 C-15.40388491 45.08577877 -15.40388491 45.08577877 -18.8203125 45.3359375 Z " fill="#3179A8" transform="translate(268.8203125,221.6640625)"/>
<path d="M0 0 C4.5137708 1.41861368 6.86197061 3.48839569 10 7 C10.87398437 7.94359375 10.87398437 7.94359375 11.765625 8.90625 C18.551015 16.7750216 20.41182463 25.4575215 20.19921875 35.6953125 C20.00690377 37.92013284 19.55717257 39.95182308 19.0625 42.125 C18.99161363 46.51995499 19.37146807 46.92033955 22.1875 50 C22.83332031 50.65871094 23.47914063 51.31742188 24.14453125 51.99609375 C29.71256643 58.00957175 30.93999931 64.79566564 31.0546875 72.83203125 C30.56893048 83.59260528 28.43708437 90.80238022 21.625 99.25 C19.24575215 102.20716587 19.24575215 102.20716587 19.125 106 C19.41375 106.99 19.7025 107.98 20 109 C20.60048594 121.20988081 17.15857228 131.09081702 8.99609375 140.21875 C6.87560427 142.11100676 4.96510238 143.0497512 2.375 144.1875 C-2.11583683 146.39849121 -3.20536627 149.00086719 -4.9375 153.625 C-5.47697266 155.31496094 -5.47697266 155.31496094 -6.02734375 157.0390625 C-7 160 -7 160 -9 163 C-9.66 163 -10.32 163 -11 163 C-11.66 164.65 -12.32 166.3 -13 168 C-13.66 168 -14.32 168 -15 168 C-15.25007813 168.59941406 -15.50015625 169.19882812 -15.7578125 169.81640625 C-19.25075064 175.9565082 -28.16298901 179.57945084 -34.48828125 182.08203125 C-43.95814823 184.55746923 -55.18524526 184.54087109 -64.08984375 180.203125 C-68.66978082 177.31842026 -71.73190973 173.23641331 -75 169 C-74 167 -74 167 -72.125 166.3125 C-70 166 -70 166 -67 167 C-67 166.34 -67 165.68 -67 165 C-66.34 165 -65.68 165 -65 165 C-64.34 165.99 -63.68 166.98 -63 168 C-54.58850933 171.93075429 -45.93987454 172.22501794 -37.25 169.25 C-28.770457 165.8200725 -21.98242899 160.81712156 -17.73828125 152.5390625 C-16.0806779 148.53370125 -14.98007073 144.91769192 -14.4375 140.625 C-13 137 -13 137 -10.57421875 135.6875 C-8.6461579 134.99288735 -6.69566991 134.35697218 -4.7265625 133.7890625 C-2.24553231 133.07105663 -0.18817254 132.36573867 2 131 C3.12949221 128.19623648 3.12949221 128.19623648 4 125 C4.53625 124.113125 5.0725 123.22625 5.625 122.3125 C7.60545878 117.54139475 7.60140485 113.10052216 7 108 C6.06057514 105.97084231 5.07401615 103.96124688 4 102 C4.0625 99.3125 4.0625 99.3125 5 97 C8.20689655 94 8.20689655 94 11 94 C11 93.34 11 92.68 11 92 C11.66 92 12.32 92 13 92 C17.91007816 82.93524032 19.29885146 74.88391276 17.375 64.6875 C14.7203892 59.49894253 11.38991284 55.37996151 6 53 C6 52.34 6 51.68 6 51 C5.34 51 4.68 51 4 51 C3.6968741 47.6656151 4.00367766 45.99249144 5.5 42.9375 C8.11185735 37.33186276 7.72945065 30.3666953 6.44140625 24.421875 C5.96484627 21.80712111 6.20116718 19.97174955 6.6875 17.375 C7.03952938 15.08960028 7.03952938 15.08960028 7 13 C5.42182765 10.73070004 5.42182765 10.73070004 3 10 C2.01 10.33 1.02 10.66 0 11 C0 10.34 0 9.68 0 9 C-0.99 8.505 -0.99 8.505 -2 8 C-0.68 6.68 0.64 5.36 2 4 C1.01 2.02 1.01 2.02 0 0 Z " fill="#164868" transform="translate(405,153)"/>
<path d="M0 0 C-0.99 0.495 -0.99 0.495 -2 1 C-1.21625 1.0825 -0.4325 1.165 0.375 1.25 C3 2 3 2 4.25 3.8125 C4.9524226 5.86123257 5.48862516 7.89719141 6 10 C4.00283825 10.65455759 2.00209613 11.2981943 0 11.9375 C-1.11375 12.29714844 -2.2275 12.65679687 -3.375 13.02734375 C-7.2880869 14.07729918 -10.98005267 14.53209852 -15 15 C-14.98889694 15.94103073 -14.97779388 16.88206146 -14.96635437 17.85160828 C-14.86495693 26.72377793 -14.79002455 35.59582989 -14.74093914 44.46844769 C-14.71485512 49.02991082 -14.67947938 53.59090587 -14.62280273 58.15209961 C-14.56843957 62.55470689 -14.53857047 66.95686423 -14.52561378 71.35978127 C-14.51638155 73.03874609 -14.49835268 74.71768653 -14.47134972 76.39645958 C-14.43500006 78.75011599 -14.43005681 81.1019182 -14.43237305 83.45581055 C-14.40540848 84.49483017 -14.40540848 84.49483017 -14.37789917 85.55484009 C-14.41889403 89.40988829 -14.85526973 90.83692157 -17.45344543 93.76448059 C-18.29380844 94.502202 -19.13417145 95.2399234 -20 96 C-21.33563611 99.16701423 -21.33563611 99.16701423 -22 102 C-25.94911099 96.07633351 -26.30009871 89.56190663 -26.30639648 82.64379883 C-26.31472 81.85086929 -26.32304352 81.05793976 -26.33161926 80.24098206 C-26.35551923 77.64628053 -26.36446297 75.05183079 -26.37109375 72.45703125 C-26.38006947 70.64198231 -26.38919148 68.8269341 -26.39845276 67.0118866 C-26.41488663 63.22022712 -26.42263365 59.42865541 -26.42553711 55.63696289 C-26.43094073 50.78114831 -26.46872573 45.92615774 -26.51428127 41.07057667 C-26.54401859 37.32762118 -26.5512598 33.58486596 -26.55226326 29.8418026 C-26.55646574 28.05122761 -26.5689012 26.26065204 -26.58978081 24.47019386 C-26.61665072 21.96884656 -26.61188616 19.46943568 -26.59936523 16.96801758 C-26.61419952 16.23180176 -26.62903381 15.49558594 -26.64431763 14.73706055 C-26.5889473 10.85082897 -26.12687595 9.15854863 -23.66908264 6.08720398 C-20.5434255 3.64296193 -17.95146959 2.70482178 -14.125 1.6875 C-12.36542969 1.19830078 -12.36542969 1.19830078 -10.5703125 0.69921875 C-6.95270515 -0.00926234 -3.67620018 -0.12692763 0 0 Z " fill="#134564" transform="translate(107,131)"/>
<path d="M0 0 C0.66032227 -0.00175232 1.32064453 -0.00350464 2.00097656 -0.00531006 C4.18817761 -0.00971872 6.3752981 -0.00679406 8.5625 -0.00341797 C10.07942724 -0.00409129 11.59635438 -0.00506156 13.11328125 -0.00631714 C16.29428127 -0.00779277 19.47525324 -0.00564386 22.65625 -0.00097656 C26.73871087 0.00472065 30.821106 0.00144093 34.90356445 -0.00454903 C38.03646339 -0.00815825 41.16934669 -0.00701438 44.30224609 -0.00442123 C45.80778003 -0.00375297 47.31331537 -0.0045769 48.81884766 -0.00690079 C50.92093686 -0.00943322 53.02291881 -0.00557836 55.125 0 C56.32253906 0.00079559 57.52007812 0.00159119 58.75390625 0.00241089 C61.5625 0.12939453 61.5625 0.12939453 63.5625 1.12939453 C63.5625 3.43939453 63.5625 5.74939453 63.5625 8.12939453 C59.23198244 9.77461088 55.66171309 10.37820992 51.03808594 10.37231445 C49.76366638 10.37539108 48.48924683 10.37846771 47.1762085 10.38163757 C45.79976213 10.37474172 44.42331759 10.3674749 43.046875 10.35986328 C41.62534629 10.35867001 40.20381678 10.35821863 38.7822876 10.35847473 C35.81346654 10.35691562 32.84476706 10.34866679 29.87597656 10.33520508 C26.06714514 10.31815396 22.25844628 10.31439283 18.44958115 10.31515026 C15.51913178 10.31487876 12.5887115 10.30940176 9.65827179 10.30214882 C8.2532193 10.29896423 6.84816351 10.29699523 5.4431076 10.29625511 C3.48517168 10.29409287 1.52724804 10.28455762 -0.43066406 10.2746582 C-2.10228607 10.26894051 -2.10228607 10.26894051 -3.80767822 10.2631073 C-6.4375 10.12939453 -6.4375 10.12939453 -8.4375 9.12939453 C-9.38817299 5.84525148 -9.53852197 4.43246045 -8.4375 1.12939453 C-5.59112782 -0.29379156 -3.18219012 0.00211411 0 0 Z " fill="#234C6A" transform="translate(153.4375,201.87060546875)"/>
<path d="M0 0 C0.51046875 1.06927734 0.51046875 1.06927734 1.03125 2.16015625 C4.76113578 9.53064864 8.76833941 15.41484108 16.33203125 19.15234375 C20.51093271 20.48004744 24.68374826 20.45692212 29.0390625 20.65625 C32 21 32 21 35 23 C35 23.66 35 24.32 35 25 C35.66 25 36.32 25 37 25 C37 25.66 37 26.32 37 27 C37.99 27 38.98 27 40 27 C40.495 25.515 40.495 25.515 41 24 C43.5625 22.8125 43.5625 22.8125 46 22 C45.68793825 24.91257629 45.03930601 25.96069399 42.9375 28.0625 C35.81391398 32.76103546 27.74559243 34.83587009 19.234375 33.59765625 C9.70400049 31.34816841 2.44071634 26.2664492 -4 19 C-4 18.34 -4 17.68 -4 17 C-4.66 17 -5.32 17 -6 17 C-7.00696568 14.89915791 -8.0053589 12.79420511 -9 10.6875 C-9.556875 9.51574219 -10.11375 8.34398437 -10.6875 7.13671875 C-12 4 -12 4 -12 1 C-7.9472484 0.01751476 -4.16138263 -0.08159574 0 0 Z " fill="#194769" transform="translate(270,302)"/>
<path d="M0 0 C7.3973076 -0.04629419 14.79458407 -0.08185426 22.19200706 -0.10362434 C25.62675459 -0.1140717 29.06140317 -0.12824805 32.49609375 -0.15087891 C36.44269638 -0.17672063 40.38925863 -0.18646493 44.3359375 -0.1953125 C45.57242035 -0.20563507 46.8089032 -0.21595764 48.08285522 -0.22659302 C49.22388702 -0.22674408 50.36491882 -0.22689514 51.54052734 -0.22705078 C52.548685 -0.231492 53.55684265 -0.23593323 54.59555054 -0.24050903 C57 0 57 0 59 2 C58.67 4.31 58.34 6.62 58 9 C38.86 9 19.72 9 0 9 C-1 3 -1 3 0 0 Z " fill="#0E4061" transform="translate(145,225)"/>
<path d="M0 0 C0.87430664 -0.00315216 1.74861328 -0.00630432 2.64941406 -0.009552 C3.59526367 -0.00752777 4.54111328 -0.00550354 5.515625 -0.00341797 C6.48467773 -0.00437469 7.45373047 -0.00533142 8.45214844 -0.00631714 C10.50325587 -0.00699836 12.55436545 -0.00514808 14.60546875 -0.00097656 C17.75265323 0.00437248 20.89969498 -0.00092351 24.046875 -0.00732422 C26.03645865 -0.00666343 28.02604221 -0.00538224 30.015625 -0.00341797 C30.96147461 -0.0054422 31.90732422 -0.00746643 32.88183594 -0.009552 C33.75614258 -0.00639984 34.63044922 -0.00324768 35.53125 0 C36.68802246 0.00119339 36.68802246 0.00119339 37.86816406 0.00241089 C39.765625 0.12939453 39.765625 0.12939453 41.765625 1.12939453 C41.765625 3.76939453 41.765625 6.40939453 41.765625 9.12939453 C39.44721516 10.28859945 38.11123369 10.25612741 35.53125 10.25878906 C34.65694336 10.26194122 33.78263672 10.26509338 32.88183594 10.26834106 C31.93598633 10.26631683 30.99013672 10.2642926 30.015625 10.26220703 C28.5620459 10.26364212 28.5620459 10.26364212 27.07910156 10.2651062 C25.02799413 10.26578743 22.97688455 10.26393714 20.92578125 10.25976562 C17.77859677 10.25441658 14.63155502 10.25971257 11.484375 10.26611328 C9.49479135 10.26545249 7.50520779 10.26417131 5.515625 10.26220703 C4.56977539 10.26423126 3.62392578 10.26625549 2.64941406 10.26834106 C1.77510742 10.2651889 0.90080078 10.26203674 0 10.25878906 C-1.15677246 10.25759567 -1.15677246 10.25759567 -2.33691406 10.25637817 C-4.234375 10.12939453 -4.234375 10.12939453 -6.234375 9.12939453 C-6.234375 6.48939453 -6.234375 3.84939453 -6.234375 1.12939453 C-3.91596516 -0.02981039 -2.57998369 0.00266165 0 0 Z " fill="#234C6A" transform="translate(151.234375,246.87060546875)"/>
<path d="M0 0 C0.89867798 -0.00145523 1.79735596 -0.00291046 2.7232666 -0.00440979 C4.62299848 -0.00275005 6.52274369 0.00881965 8.42236328 0.02954102 C11.33293679 0.05848621 14.2416884 0.05015392 17.15234375 0.03710938 C18.9974047 0.04334702 20.84245989 0.05173816 22.6875 0.0625 C23.55942993 0.05956436 24.43135986 0.05662872 25.32971191 0.05360413 C26.14065308 0.0662883 26.95159424 0.07897247 27.78710938 0.09204102 C28.49975952 0.097444 29.21240967 0.10284698 29.94665527 0.1084137 C32.41811979 0.61346887 33.3249144 1.51305693 34.84375 3.49609375 C35.03125 6.18359375 35.03125 6.18359375 34.84375 8.49609375 C34.18375 8.49609375 33.52375 8.49609375 32.84375 8.49609375 C32.84375 9.15609375 32.84375 9.81609375 32.84375 10.49609375 C26.89892888 10.52076578 20.9541374 10.53894038 15.00927734 10.55102539 C12.98583457 10.55606206 10.96239544 10.56289164 8.93896484 10.5715332 C6.03482157 10.58362787 3.13072631 10.58932863 0.2265625 10.59375 C-0.68181366 10.59891129 -1.59018982 10.60407257 -2.52609253 10.60939026 C-3.36681305 10.60946579 -4.20753357 10.60954132 -5.07373047 10.60961914 C-6.18625687 10.61295006 -6.18625687 10.61295006 -7.32125854 10.61634827 C-9.15625 10.49609375 -9.15625 10.49609375 -11.15625 9.49609375 C-12.1533552 6.65817894 -12.43811572 5.15365523 -11.24023438 2.35913086 C-7.89275686 -0.63344188 -4.33835311 -0.05589551 0 0 Z " fill="#26516F" transform="translate(156.15625,178.50390625)"/>
<path d="M0 0 C9.83477818 3.48976 16.71206003 8.19130605 21.875 17.3125 C23.57643843 22.88943707 23.85551711 28.43344868 22 34 C19 36 19 36 15 36 C15 35.34 15 34.68 15 34 C14.34 34 13.68 34 13 34 C12.87882812 33.18015625 12.75765625 32.3603125 12.6328125 31.515625 C12.46523438 30.43796875 12.29765625 29.3603125 12.125 28.25 C11.96257812 27.18265625 11.80015625 26.1153125 11.6328125 25.015625 C10.7264 20.69617776 9.86395022 18.67881803 6.375 15.9375 C5.59125 15.298125 4.8075 14.65875 4 14 C4 13.01 4 12.02 4 11 C3.34 11 2.68 11 2 11 C-1.07692308 4.6 -1.07692308 4.6 -0.6875 1.5625 C-0.460625 1.046875 -0.23375 0.53125 0 0 Z " fill="#0A4267" transform="translate(281,127)"/>
<path d="M0 0 C5.55580866 9.22551253 5.55580866 9.22551253 6 15 C5.34 15 4.68 15 4 15 C4.33 15.99 4.66 16.98 5 18 C3.35 18 1.7 18 0 18 C2.39509338 20.89932357 4.31245243 21.50168276 8 22 C8.33 22.99 8.66 23.98 9 25 C8.67 25.66 8.34 26.32 8 27 C9.134375 27.268125 10.26875 27.53625 11.4375 27.8125 C12.613125 28.204375 13.78875 28.59625 15 29 C15.33 29.99 15.66 30.98 16 32 C7.77120518 30.77074243 1.38001199 25.06975711 -4 19 C-4 18.34 -4 17.68 -4 17 C-4.66 17 -5.32 17 -6 17 C-7.00696568 14.89915791 -8.0053589 12.79420511 -9 10.6875 C-9.556875 9.51574219 -10.11375 8.34398437 -10.6875 7.13671875 C-12 4 -12 4 -12 1 C-7.9472484 0.01751476 -4.16138263 -0.08159574 0 0 Z " fill="#174767" transform="translate(270,302)"/>
<path d="M0 0 C0.33 0 0.66 0 1 0 C1.61463415 12.46341463 1.61463415 12.46341463 -0.375 17.4375 C-8.39835977 25.26982739 -15.89040352 29.01197589 -27.125 29.125 C-28.548125 29.063125 -28.548125 29.063125 -30 29 C-27.57234874 26.31425957 -24.91527302 24.65490824 -21.8125 22.8125 C-13.42890297 17.53271162 -7.83701768 11.19418355 -2.34765625 3.00390625 C-1 1 -1 1 0 0 Z " fill="#0A4064" transform="translate(301,273)"/>
<path d="M0 0 C0.66 1.32 1.32 2.64 2 4 C2.66 4 3.32 4 4 4 C5.3442623 9.37704918 5.3442623 9.37704918 3.6875 12.375 C2 14 2 14 0 14 C-0.33 15.65 -0.66 17.3 -1 19 C-1.598125 19.144375 -2.19625 19.28875 -2.8125 19.4375 C-4.56150404 19.8872439 -6.28677023 20.42892341 -8 21 C-8.99 20.67 -9.98 20.34 -11 20 C-10.67 20.99 -10.34 21.98 -10 23 C-12.64 22.67 -15.28 22.34 -18 22 C-18.33 20.02 -18.66 18.04 -19 16 C-18.38253906 15.68289063 -17.76507813 15.36578125 -17.12890625 15.0390625 C-9.99850577 11.11028781 -5.1335881 6.27438546 0 0 Z M0 4 C1 6 1 6 1 6 Z " fill="#0C4265" transform="translate(387,307)"/>
<path d="M0 0 C0.66 0 1.32 0 2 0 C2.99 1.98 3.98 3.96 5 6 C5.33 6 5.66 6 6 6 C6 7.65 6 9.3 6 11 C4.68 11 3.36 11 2 11 C2 12.32 2 13.64 2 15 C-0.64 15.99 -3.28 16.98 -6 18 C-6 17.34 -6 16.68 -6 16 C-7.98 17.32 -9.96 18.64 -12 20 C-12.99 19.01 -13.98 18.02 -15 17 C-15.99 18.32 -16.98 19.64 -18 21 C-17.01 21.99 -16.02 22.98 -15 24 C-18 26 -18 26 -22 26 C-22.33 24.68 -22.66 23.36 -23 22 C-22.34 22 -21.68 22 -21 22 C-21 21.34 -21 20.68 -21 20 C-24.63 19.67 -28.26 19.34 -32 19 C-32 18.67 -32 18.34 -32 18 C-30.98292969 17.97873047 -30.98292969 17.97873047 -29.9453125 17.95703125 C-19.59744488 17.42673886 -11.14120528 13.59824242 -4 6 C-3.19833028 4.89676173 -2.42454776 3.77241868 -1.6875 2.625 C-1.130625 1.75875 -0.57375 0.8925 0 0 Z " fill="#0B4164" transform="translate(283,267)"/>
<path d="M0 0 C0.33 1.32 0.66 2.64 1 4 C1.66 4 2.32 4 3 4 C3.99497749 5.21709908 3.99497749 5.21709908 5.01005554 6.45878601 C9.22515069 10.04128023 12.469664 9.70941575 17.83911133 9.65942383 C19.31787247 9.67514938 19.31787247 9.67514938 20.82650757 9.69119263 C24.07866872 9.71994875 27.3297657 9.71365016 30.58203125 9.70703125 C32.83934362 9.72014588 35.09664424 9.73544937 37.35392761 9.75285339 C43.29037655 9.79274332 49.22651878 9.80289648 55.16308594 9.80688477 C61.22275114 9.81620857 67.28223556 9.85361748 73.34179688 9.88867188 C85.22785611 9.95328859 97.1137805 9.98649526 109 10 C109 10.33 109 10.66 109 11 C107.11198921 11.01213028 107.11198921 11.01213028 105.18583679 11.02450562 C93.3401829 11.10189637 81.49464486 11.18961767 69.64914227 11.28752708 C63.55884275 11.33753264 57.46856094 11.38386231 51.37817383 11.421875 C45.50369681 11.45867395 39.62936644 11.50501921 33.75501442 11.55806351 C31.51069517 11.57663615 29.26634445 11.59173342 27.02197838 11.60334396 C23.88518541 11.62015727 20.74873042 11.6491805 17.61206055 11.68115234 C16.67842178 11.68331253 15.74478302 11.68547272 14.78285217 11.68769836 C13.50192184 11.70444359 13.50192184 11.70444359 12.19511414 11.7215271 C11.45307078 11.72705786 10.71102743 11.73258862 9.94649792 11.73828697 C7.67679353 11.89850273 7.67679353 11.89850273 5 14 C5.66 14 6.32 14 7 14 C7.66 15.65 8.32 17.3 9 19 C8.01 19 7.02 19 6 19 C5.67 18.01 5.34 17.02 5 16 C4.34 16 3.68 16 3 16 C1.01953125 13.91796875 1.01953125 13.91796875 -1.1875 11.1875 C-1.92355469 10.29417969 -2.65960938 9.40085937 -3.41796875 8.48046875 C-3.94003906 7.66191406 -4.46210937 6.84335937 -5 6 C-3.86695008 2.60085025 -2.87481525 1.94745549 0 0 Z " fill="#286E9B" transform="translate(119,276)"/>
<path d="M0 0 C0.99 0.495 0.99 0.495 2 1 C2.33 1.99 2.66 2.98 3 4 C4.32 3.67 5.64 3.34 7 3 C7.33 4.32 7.66 5.64 8 7 C9.65 6.34 11.3 5.68 13 5 C16.36591427 7.72478774 17.44226276 11.06856792 19 15 C17.7934375 15.61875 17.7934375 15.61875 16.5625 16.25 C13.90218992 17.74213074 13.90218992 17.74213074 13.0625 20.0625 C13.041875 20.701875 13.02125 21.34125 13 22 C13.66 22.66 14.32 23.32 15 24 C15.165 24.845625 15.33 25.69125 15.5 26.5625 C15.665 27.366875 15.83 28.17125 16 29 C16.66 29.33 17.32 29.66 18 30 C17.34 30.99 16.68 31.98 16 33 C16 32.34 16 31.68 16 31 C15.34 31 14.68 31 14 31 C10.26967968 24.45780943 6.86195333 17.79745724 3.625 11 C3.26728516 10.2582251 2.90957031 9.5164502 2.54101562 8.75219727 C0 3.35749231 0 3.35749231 0 0 Z " fill="#134666" transform="translate(88,255)"/>
<path d="M0 0 C4.36628688 1.09157172 7.53375067 2.13137987 11 5 C12.32390447 5.6852001 13.65626248 6.35456086 15 7 C10.59178054 9.48982766 6.16946833 11.95756749 1.6875 14.3125 C1.07261719 14.63863281 0.45773438 14.96476562 -0.17578125 15.30078125 C-3.04535347 16.40068152 -5.96235143 16 -9 16 C-8.814375 15.443125 -8.62875 14.88625 -8.4375 14.3125 C-7.92448835 11.600867 -8.3359276 9.65628961 -9 7 C-8.071875 6.401875 -7.14375 5.80375 -6.1875 5.1875 C-3.79745282 3.54727155 -1.91529747 2.1281083 0 0 Z " fill="#0F4365" transform="translate(156,109)"/>
<path d="M0 0 C3.43986596 0.14637727 5.35276801 0.41540336 7.9375 2.75 C9.28313039 5.59957023 8.71009239 7.00183212 8 10 C8.66 10.66 9.32 11.32 10 12 C8.35 13.32 6.7 14.64 5 16 C-0.61 13.03 -6.22 10.06 -12 7 C-12 6.01 -12 5.02 -12 4 C-5.375 2 -5.375 2 -2 2 C-1.34 1.34 -0.68 0.68 0 0 Z " fill="#0E4365" transform="translate(194,107)"/>
<path d="M0 0 C7.96923077 6.83076923 7.96923077 6.83076923 10.9375 10.25 C11.52402344 10.91515625 12.11054688 11.5803125 12.71484375 12.265625 C14 14 14 14 14 16 C14.66 16 15.32 16 16 16 C16.66 17.32 17.32 18.64 18 20 C12.06 20 6.12 20 0 20 C0 13.4 0 6.8 0 0 Z " fill="#2F75A2" transform="translate(210,163)"/>
<path d="M0 0 C0.85722656 -0.00515625 1.71445312 -0.0103125 2.59765625 -0.015625 C4.9375 0.25 4.9375 0.25 7.9375 2.25 C7.9375 2.91 7.9375 3.57 7.9375 4.25 C8.5975 4.25 9.2575 4.25 9.9375 4.25 C9.9375 4.91 9.9375 5.57 9.9375 6.25 C10.9275 6.25 11.9175 6.25 12.9375 6.25 C13.2675 5.26 13.5975 4.27 13.9375 3.25 C16.5 2.0625 16.5 2.0625 18.9375 1.25 C18.60710927 4.33364682 17.96092865 5.22847097 15.625 7.375 C11.07046538 10.5525823 8.58615055 11.50675684 2.9375 11.25 C2.9375 9.93 2.9375 8.61 2.9375 7.25 C-0.0325 7.25 -3.0025 7.25 -6.0625 7.25 C-6.3925 6.59 -6.7225 5.93 -7.0625 5.25 C-6.7325 4.59 -6.4025 3.93 -6.0625 3.25 C-7.0525 2.92 -8.0425 2.59 -9.0625 2.25 C-5.93061623 0.41882898 -3.61429405 -0.0218057 0 0 Z " fill="#0D4164" transform="translate(297.0625,322.75)"/>
<path d="M0 0 C0.33 0 0.66 0 1 0 C1.33 24.75 1.66 49.5 2 75 C1.01 75 0.02 75 -1 75 C-1 73.68 -1 72.36 -1 71 C-1.66 70.67 -2.32 70.34 -3 70 C-2.34 70 -1.68 70 -1 70 C-1.00222061 69.16728073 -1.00444122 68.33456146 -1.00672913 67.47660828 C-1.02675572 59.63383949 -1.04198625 51.79107929 -1.05181217 43.94829082 C-1.05703356 39.91611835 -1.06411774 35.88396697 -1.07543945 31.85180664 C-1.08629472 27.96147771 -1.09228245 24.07116909 -1.09487724 20.18082619 C-1.09672672 18.6956532 -1.10033821 17.21048135 -1.10573006 15.725317 C-1.11297549 13.6471757 -1.11398946 11.56911867 -1.11352539 9.4909668 C-1.115746 8.30738083 -1.11796661 7.12379486 -1.12025452 5.90434265 C-1 3 -1 3 0 0 Z " fill="#375971" transform="translate(276,140)"/>
<path d="M0 0 C7.3973076 -0.04629419 14.79458407 -0.08185426 22.19200706 -0.10362434 C25.62675459 -0.1140717 29.06140317 -0.12824805 32.49609375 -0.15087891 C36.44269638 -0.17672063 40.38925863 -0.18646493 44.3359375 -0.1953125 C45.57242035 -0.20563507 46.8089032 -0.21595764 48.08285522 -0.22659302 C49.22388702 -0.22674408 50.36491882 -0.22689514 51.54052734 -0.22705078 C52.548685 -0.231492 53.55684265 -0.23593323 54.59555054 -0.24050903 C57 0 57 0 59 2 C58.67 4.31 58.34 6.62 58 9 C38.86 9 19.72 9 0 9 C-1 3 -1 3 0 0 Z M2 1 C1.67 3.31 1.34 5.62 1 8 C19.48 8 37.96 8 57 8 C56.34 5.69 55.68 3.38 55 1 C37.51 1 20.02 1 2 1 Z " fill="#4B6578" transform="translate(145,225)"/>
<path d="M0 0 C2.1346875 -0.0309375 2.1346875 -0.0309375 4.3125 -0.0625 C5.51326172 -0.07990234 5.51326172 -0.07990234 6.73828125 -0.09765625 C9 0 9 0 12 1 C13.71818252 3.40545553 14.02443247 4.65794547 13.8125 7.625 C13 10 13 10 10 12 C5.65676602 12.36963693 4.01886337 12.00943169 0 10 C0 6.7 0 3.4 0 0 Z " fill="#0B4063" transform="translate(285,176)"/>
<path d="M0 0 C0.61875 0.639375 1.2375 1.27875 1.875 1.9375 C4.78549494 4.76239215 6.41264774 5.13259023 10.3515625 5.31640625 C11.20234375 5.35830078 12.053125 5.40019531 12.9296875 5.44335938 C13.81914062 5.48267578 14.70859375 5.52199219 15.625 5.5625 C16.97078125 5.62727539 16.97078125 5.62727539 18.34375 5.69335938 C20.56234283 5.79956861 22.7810488 5.90161194 25 6 C25.33 5.34 25.66 4.68 26 4 C26.99 4.33 27.98 4.66 29 5 C29 13.91 29 22.82 29 32 C28.01 32 27.02 32 26 32 C26.33 31.67 26.66 31.34 27 31 C27.08685603 29.43827255 27.10702219 27.87270656 27.09765625 26.30859375 C27.09282227 24.89223633 27.09282227 24.89223633 27.08789062 23.44726562 C27.07951172 22.45404297 27.07113281 21.46082031 27.0625 20.4375 C27.05798828 19.44041016 27.05347656 18.44332031 27.04882812 17.41601562 C27.03700007 14.94395151 27.02051849 12.47200482 27 10 C26.08504761 9.97812622 26.08504761 9.97812622 25.15161133 9.95581055 C22.37128936 9.88105225 19.59213176 9.78448518 16.8125 9.6875 C15.85279297 9.66494141 14.89308594 9.64238281 13.90429688 9.61914062 C7.50727388 9.37565532 3.65429121 8.65429121 -1 4 C-0.625 1.875 -0.625 1.875 0 0 Z " fill="#446379" transform="translate(202,183)"/>
<path d="M0 0 C0.33 0 0.66 0 1 0 C1 4.62 1 9.24 1 14 C-3 16 -3 16 -7 16 C-7 17.65 -7 19.3 -7 21 C-9 21 -9 21 -10.625 19.5 C-11.07875 19.005 -11.5325 18.51 -12 18 C-12 18.66 -12 19.32 -12 20 C-13.32 19.67 -14.64 19.34 -16 19 C-15.50371094 18.53851563 -15.00742187 18.07703125 -14.49609375 17.6015625 C-9.79659721 13.08933242 -5.97423253 8.4148572 -2.34765625 3.00390625 C-1 1 -1 1 0 0 Z " fill="#204C6D" transform="translate(301,273)"/>
<path d="M0 0 C1.32 0.33 2.64 0.66 4 1 C-0.97686306 7.26773692 -6.05165612 13.25308017 -14.3125 14.5 C-17 14 -17 14 -18.875 12.6875 C-20 11 -20 11 -20 8 C-18.5 6.3125 -18.5 6.3125 -17 5 C-15 6 -15 6 -13 8 C-12.5875 7.505 -12.175 7.01 -11.75 6.5 C-10 5 -10 5 -6 5 C-3.99598989 4.69169075 -1.99488234 4.36270588 0 4 C0 2.68 0 1.36 0 0 Z " fill="#134567" transform="translate(285,278)"/>
<path d="M0 0 C0.47308594 0.38671875 0.94617188 0.7734375 1.43359375 1.171875 C6.33904287 5.03503571 11.19610545 7.71606001 17 10 C17 10.33 17 10.66 17 11 C15.9275 11.103125 14.855 11.20625 13.75 11.3125 C10.07624166 11.98602236 8.74842404 12.65874989 6 15 C5.34 15 4.68 15 4 15 C3.67 13.68 3.34 12.36 3 11 C0.69 10.67 -1.62 10.34 -4 10 C-4.33 9.01 -4.66 8.02 -5 7 C-3.68 6.67 -2.36 6.34 -1 6 C-1 5.34 -1 4.68 -1 4 C-0.34 4 0.32 4 1 4 C0.67 2.68 0.34 1.36 0 0 Z " fill="#0A4164" transform="translate(275,313)"/>
<path d="M0 0 C4.47014404 2.50328066 8.76946537 5.1108544 13 8 C12.38125 8.5775 11.7625 9.155 11.125 9.75 C9.18652947 11.80249821 8.09985751 13.43366582 7 16 C4.53199953 14.84826645 2.95216435 13.95216435 1 12 C1 10.68 1 9.36 1 8 C0.34 8 -0.32 8 -1 8 C-1.33 7.01 -1.66 6.02 -2 5 C-1.34 5 -0.68 5 0 5 C0 3.35 0 1.7 0 0 Z " fill="#0B4265" transform="translate(143,311)"/>
<path d="M0 0 C0.99 0.33 1.98 0.66 3 1 C3.07427838 4.34252724 3.06546953 6.8035914 2 10 C2.66 10 3.32 10 4 10 C5.25664978 12.90600261 6 14.79604584 6 18 C1.07423996 15.28580569 -3.55051653 12.45061983 -8 9 C-8 8.34 -8 7.68 -8 7 C-8.66 6.67 -9.32 6.34 -10 6 C-8.02 6 -6.04 6 -4 6 C-3.67 4.35 -3.34 2.7 -3 1 C-2.67 1.99 -2.34 2.98 -2 4 C-1.34 4 -0.68 4 0 4 C0 2.68 0 1.36 0 0 Z M1 10 C2 12 2 12 2 12 Z " fill="#265270" transform="translate(140,309)"/>
<path d="M0 0 C3.08089673 2.77280706 4.68775452 5.06326356 6 9 C4.68 9 3.36 9 2 9 C2.20625 9.7425 2.4125 10.485 2.625 11.25 C3.04408751 14.32330841 2.61949011 15.42786866 1 18 C0.34 18 -0.32 18 -1 18 C-1.33 17.01 -1.66 16.02 -2 15 C-2.33 15 -2.66 15 -3 15 C-3.185625 13.576875 -3.185625 13.576875 -3.375 12.125 C-3.71687177 8.91332809 -3.71687177 8.91332809 -6 7 C-4.52307692 2.32307692 -4.52307692 2.32307692 -1.875 0.6875 C-1.25625 0.460625 -0.6375 0.23375 0 0 Z " fill="#0C4164" transform="translate(106,270)"/>
<path d="M0 0 C4.23429756 1.31061591 8.07407404 2.94356259 12 5 C11.38125 5.4125 10.7625 5.825 10.125 6.25 C7.89952304 7.84135216 7.89952304 7.84135216 6.9375 10.125 C6.628125 10.74375 6.31875 11.3625 6 12 C5.01 12.33 4.02 12.66 3 13 C2.34 13.66 1.68 14.32 1 15 C0.01 14.67 -0.98 14.34 -2 14 C-1.67 13.38125 -1.34 12.7625 -1 12.125 C0.15343598 9.67394854 0.20783052 8.6927684 -0.5625 6.125 C-1.05492515 3.7332207 -0.73924706 2.29987973 0 0 Z " fill="#0C4062" transform="translate(202,110)"/>
<path d="M0 0 C2.1734082 3.51089017 3.15563913 5.1751126 2.375 9.3125 C1 12 1 12 -2 13 C-4.04296875 12.22265625 -4.04296875 12.22265625 -6.1875 11.0625 C-6.90292969 10.68222656 -7.61835938 10.30195312 -8.35546875 9.91015625 C-8.89816406 9.60980469 -9.44085938 9.30945313 -10 9 C-9 6 -9 6 -6.9375 4.8125 C-6.298125 4.544375 -5.65875 4.27625 -5 4 C-5 3.01 -5 2.02 -5 1 C-3 0 -3 0 0 0 Z " fill="#0A4064" transform="translate(214,116)"/>
<path d="M0 0 C20.79 0 41.58 0 63 0 C63 1.98 63 3.96 63 6 C62.505 4.515 62.505 4.515 62 3 C55.44150016 1.83579377 48.93416334 1.77881934 42.28515625 1.68359375 C41.07427841 1.66281265 39.86340057 1.64203156 38.61582947 1.62062073 C34.7647749 1.55546976 30.91365473 1.49640086 27.0625 1.4375 C24.44465479 1.394282 21.82681612 1.35066668 19.20898438 1.30664062 C12.80605805 1.19982381 6.4030671 1.09799465 0 1 C0 0.67 0 0.34 0 0 Z " fill="#193D56" transform="translate(153,203)"/>
<path d="M0 0 C3.29680965 0.65784963 5.84117922 1.89420573 8.75 3.5625 C9.94882813 4.24505859 9.94882813 4.24505859 11.171875 4.94140625 C11.77515625 5.29074219 12.3784375 5.64007813 13 6 C10.63707344 8.52588702 9.33537489 9.88820837 6 11 C6 10.34 6 9.68 6 9 C4.68 9.33 3.36 9.66 2 10 C1.87625 9.030625 1.7525 8.06125 1.625 7.0625 C1.41875 6.051875 1.2125 5.04125 1 4 C0.34 3.67 -0.32 3.34 -1 3 C-0.67 2.01 -0.34 1.02 0 0 Z " fill="#295470" transform="translate(183,100)"/>
<path d="M0 0 C4.42700422 1.39134418 6.99413292 3.47884142 10 7 C10 7.99 10 8.98 10 10 C8.02 10.99 8.02 10.99 6 12 C5.01 11.34 4.02 10.68 3 10 C2.01 10.33 1.02 10.66 0 11 C0 10.34 0 9.68 0 9 C-0.66 8.67 -1.32 8.34 -2 8 C-0.68 6.68 0.64 5.36 2 4 C1.34 2.68 0.68 1.36 0 0 Z " fill="#29536F" transform="translate(405,153)"/>
<path d="M0 0 C1.32 0.33 2.64 0.66 4 1 C3.67 1.66 3.34 2.32 3 3 C3.66 3.33 4.32 3.66 5 4 C5.72693904 5.97888961 6.39816251 7.97954558 7 10 C2.428721 9.45144652 -1.67435795 8.58255197 -6 7 C-4.02 4.69 -2.04 2.38 0 0 Z " fill="#244F6D" transform="translate(347,326)"/>
<path d="M0 0 C2 1 2 1 3 2 C3 2.99 3 3.98 3 5 C3.66 5.66 4.32 6.32 5 7 C-0.76081841 8.2982126 -6.08739655 9.25706972 -12 9 C-9.67350413 6.49280542 -7.17318479 4.67816399 -4.3125 2.8125 C-3.50425781 2.28269531 -2.69601562 1.75289063 -1.86328125 1.20703125 C-1.24839844 0.80871094 -0.63351562 0.41039062 0 0 Z " fill="#0F4268" transform="translate(283,293)"/>
<path d="M0 0 C0.66 0 1.32 0 2 0 C2.33 0.99 2.66 1.98 3 3 C4.155 3.33 5.31 3.66 6.5 4 C7.655 4.33 8.81 4.66 10 5 C10.33 5.99 10.66 6.98 11 8 C10.67 8.66 10.34 9.32 10 10 C11.134375 10.268125 12.26875 10.53625 13.4375 10.8125 C15.2009375 11.4003125 15.2009375 11.4003125 17 12 C17.33 12.99 17.66 13.98 18 15 C14.12208721 14.43818225 11.59084674 13.34625496 8.375 11.125 C7.24191406 10.35542969 7.24191406 10.35542969 6.0859375 9.5703125 C1.23495146 5.9184466 1.23495146 5.9184466 0.3125 2.3125 C0.209375 1.549375 0.10625 0.78625 0 0 Z " fill="#2D536D" transform="translate(268,319)"/>
<path d="M0 0 C0.33 0.66 0.66 1.32 1 2 C0 4 0 4 -2.25 4.875 C-5.40478956 6.16559573 -7.52458072 7.66210402 -10 10 C-10.165 10.70125 -10.33 11.4025 -10.5 12.125 C-10.665 12.74375 -10.83 13.3625 -11 14 C-13.5625 15.25 -13.5625 15.25 -16 16 C-16.33 14.35 -16.66 12.7 -17 11 C-11.39722251 7.22590683 -5.75234036 3.54231313 0 0 Z " fill="#084166" transform="translate(208,316)"/>
<path d="M0 0 C0.99 0 1.98 0 3 0 C4.96301592 3.50538557 5.95902388 7.13351728 7 11 C4.50935112 11.68707555 2.62113708 12 0 12 C-0.33 11.01 -0.66 10.02 -1 9 C-0.34 9 0.32 9 1 9 C0.16666667 6.83333333 0.16666667 6.83333333 -2 6 C-1 4 -1 4 0 3 C0 2.01 0 1.02 0 0 Z " fill="#0B4368" transform="translate(95,250)"/>
<path d="M0 0 C0.33 0 0.66 0 1 0 C0.98952637 0.55461914 0.97905273 1.10923828 0.96826172 1.68066406 C0.92657996 4.20372959 0.90063562 6.72672253 0.875 9.25 C0.85824219 10.12269531 0.84148437 10.99539062 0.82421875 11.89453125 C0.81777344 12.73886719 0.81132812 13.58320313 0.8046875 14.453125 C0.79421387 15.22817383 0.78374023 16.00322266 0.77294922 16.80175781 C1.02712891 19.26265452 1.86955843 20.82382844 3 23 C2.625 25.25 2.625 25.25 2 27 C-1 25 -1 25 -1.68139648 23.14550781 C-2.00737935 20.95030675 -2.11350481 18.89067279 -2.09765625 16.671875 C-2.09282227 15.47304687 -2.09282227 15.47304687 -2.08789062 14.25 C-2.07951172 13.425 -2.07113281 12.6 -2.0625 11.75 C-2.05798828 10.90953125 -2.05347656 10.0690625 -2.04882812 9.203125 C-2.03707961 7.13538599 -2.01914522 5.06768376 -2 3 C-1.34 3 -0.68 3 0 3 C0 2.01 0 1.02 0 0 Z " fill="#415B71" transform="translate(212,240)"/>
<path d="M0 0 C8.08306125 1.70169711 16.03100406 3.83713681 24 6 C22 8 22 8 20.046875 8.046875 C14.72221815 7.35865405 9.85200855 6.42600427 5 4 C5 3.34 5 2.68 5 2 C3.02 2 1.04 2 -1 2 C-0.67 1.34 -0.34 0.68 0 0 Z " fill="#32556C" transform="translate(241,127)"/>
<path d="M0 0 C0.66 0.33 1.32 0.66 2 1 C2.06058594 2.2065625 2.12117187 3.413125 2.18359375 4.65625 C2.26807818 6.27084124 2.35272211 7.88542414 2.4375 9.5 C2.47681641 10.29148438 2.51613281 11.08296875 2.55664062 11.8984375 C2.82705218 16.97385441 3.3127142 21.96375445 4 27 C3.01 27 2.02 27 1 27 C-1.51301587 21.3025518 -1.0352866 16.18083024 -0.625 10.125 C-0.56828125 9.15046875 -0.5115625 8.1759375 -0.453125 7.171875 C-0.31245128 4.7804217 -0.1611264 2.39014774 0 0 Z " fill="#6797B7" transform="translate(247,232)"/>
<path d="M0 0 C1.32 0 2.64 0 4 0 C2.79157144 4.43090471 1.48331435 6.98112756 -2 10 C-2 9.34 -2 8.68 -2 8 C-3.65 8 -5.3 8 -7 8 C-7 5.69 -7 3.38 -7 1 C-4.69 1.66 -2.38 2.32 0 3 C0 2.01 0 1.02 0 0 Z " fill="#1E4B6C" transform="translate(429,241)"/>
<path d="M0 0 C1.32 0.33 2.64 0.66 4 1 C0.07041996 5.78990229 -3.5182281 10.0099426 -9 13 C-9.99 13 -10.98 13 -12 13 C-12 12.34 -12 11.68 -12 11 C-10 9.66666667 -8 8.33333333 -6 7 C-6 6.34 -6 5.68 -6 5 C-4.02 4.67 -2.04 4.34 0 4 C0 2.68 0 1.36 0 0 Z " fill="#446378" transform="translate(285,278)"/>
<path d="M0 0 C0.66 0 1.32 0 2 0 C0.54063512 3.85865969 -1.26600121 5.00320762 -4.9375 6.75 C-6.25041016 7.39195312 -6.25041016 7.39195312 -7.58984375 8.046875 C-10 9 -10 9 -13 9 C-12.67 7.35 -12.34 5.7 -12 4 C-10.35 4 -8.7 4 -7 4 C-7 3.34 -7 2.68 -7 2 C-6.21625 2.04125 -5.4325 2.0825 -4.625 2.125 C-1.83883881 2.28728734 -1.83883881 2.28728734 0 0 Z " fill="#41617A" transform="translate(383,325)"/>
<path d="M0 0 C2.95857409 -0.05379226 5.91617721 -0.09357093 8.875 -0.125 C9.71675781 -0.14175781 10.55851563 -0.15851563 11.42578125 -0.17578125 C12.23144531 -0.18222656 13.03710938 -0.18867188 13.8671875 -0.1953125 C14.98262939 -0.21102295 14.98262939 -0.21102295 16.12060547 -0.22705078 C18 0 18 0 20 2 C19.625 5.625 19.625 5.625 19 9 C16.69 9 14.38 9 12 9 C12 8.67 12 8.34 12 8 C13.65 7.67 15.3 7.34 17 7 C16.67 5.02 16.34 3.04 16 1 C10.72 1 5.44 1 0 1 C0 0.67 0 0.34 0 0 Z " fill="#4E687A" transform="translate(184,225)"/>
<path d="M0 0 C0 0.99 0 1.98 0 3 C-3 5 -3 5 -7 5 C-7.33 5.66 -7.66 6.32 -8 7 C-9.32 7 -10.64 7 -12 7 C-12.33 5.68 -12.66 4.36 -13 3 C-11.39743892 2.49487756 -9.79288208 1.99608373 -8.1875 1.5 C-7.29417969 1.2215625 -6.40085937 0.943125 -5.48046875 0.65625 C-3 0 -3 0 0 0 Z " fill="#224D6A" transform="translate(117,127)"/>
<path d="M0 0 C0.33 0 0.66 0 1 0 C1.33 2.31 1.66 4.62 2 7 C4.97 7.495 4.97 7.495 8 8 C8 8.99 8 9.98 8 11 C6.02 11.99 4.04 12.98 2 14 C1.67 13.01 1.34 12.02 1 11 C0.34 10.67 -0.32 10.34 -1 10 C-0.67 6.7 -0.34 3.4 0 0 Z " fill="#296F9C" transform="translate(380,187)"/>
<path d="M0 0 C0 3.3 0 6.6 0 10 C-2 10 -2 10 -3.625 8.5 C-4.07875 8.005 -4.5325 7.51 -5 7 C-5 7.66 -5 8.32 -5 9 C-6.32 8.67 -7.64 8.34 -9 8 C-7.6905332 6.66368764 -6.37734515 5.33102075 -5.0625 4 C-3.96615234 2.88625 -3.96615234 2.88625 -2.84765625 1.75 C-1 0 -1 0 0 0 Z " fill="#4D6982" transform="translate(294,284)"/>
<path d="M0 0 C0.66 0.33 1.32 0.66 2 1 C0.41450777 5.84455959 0.41450777 5.84455959 -1 8 C-4.1875 8.9375 -4.1875 8.9375 -7 9 C-6.875 6.75 -6.875 6.75 -6 4 C-2.9375 1.6875 -2.9375 1.6875 0 0 Z " fill="#0C436B" transform="translate(416,246)"/>
<path d="M0 0 C5.94 0 11.88 0 18 0 C18 0.33 18 0.66 18 1 C17.00097656 1.04898437 16.00195312 1.09796875 14.97265625 1.1484375 C13.68230469 1.22320312 12.39195312 1.29796875 11.0625 1.375 C9.77472656 1.44460938 8.48695313 1.51421875 7.16015625 1.5859375 C6.11730469 1.72257812 5.07445312 1.85921875 4 2 C3.67 2.66 3.34 3.32 3 4 C2.34 4 1.68 4 1 4 C0.67 4.99 0.34 5.98 0 7 C-0.33 6.34 -0.66 5.68 -1 5 C-1.99 4.67 -2.98 4.34 -4 4 C-3.01 4 -2.02 4 -1 4 C-0.67 2.68 -0.34 1.36 0 0 Z " fill="#4F6A81" transform="translate(244,295)"/>
<path d="M0 0 C0.66 0 1.32 0 2 0 C2.21824777 6.0018137 1.5056904 11.19233704 0 17 C-0.66 16.34 -1.32 15.68 -2 15 C-1.8185339 12.39508339 -1.53723614 9.94318377 -1.125 7.375 C-1.02058594 6.66859375 -0.91617187 5.9621875 -0.80859375 5.234375 C-0.54900874 3.48807586 -0.27578567 1.74381401 0 0 Z " fill="#4B667C" transform="translate(423,262)"/>
<path d="M0 0 C0.33 0 0.66 0 1 0 C1 3.96 1 7.92 1 12 C0.67 11.34 0.34 10.68 0 10 C-0.66 10 -1.32 10 -2 10 C-2 9.01 -2 8.02 -2 7 C-2.66 7 -3.32 7 -4 7 C-2.92598892 4.08482708 -2.22189824 2.22189824 0 0 Z " fill="#285572" transform="translate(301,273)"/>
<path d="M0 0 C-1.6209213 1.17232685 -3.24686833 2.3377077 -4.875 3.5 C-5.77992188 4.1496875 -6.68484375 4.799375 -7.6171875 5.46875 C-10 7 -10 7 -12 7 C-11.67 5.68 -11.34 4.36 -11 3 C-10.34 3 -9.68 3 -9 3 C-8.67 2.34 -8.34 1.68 -8 1 C-4.91025722 -1.02431423 -3.46521435 -1.02430865 0 0 Z " fill="#436077" transform="translate(213,327)"/>
<path d="M0 0 C-0.66 0 -1.32 0 -2 0 C-2.103125 0.763125 -2.20625 1.52625 -2.3125 2.3125 C-3.04364039 5.17059424 -3.76951913 6.15742885 -6 8 C-7.25664978 5.09399739 -8 3.20395416 -8 0 C-4.71303767 -0.79953138 -3.28976808 -1.09658936 0 0 Z " fill="#4B6F84" transform="translate(266,303)"/>
<path d="M0 0 C0.33 0.66 0.66 1.32 1 2 C1.66 2.33 2.32 2.66 3 3 C2.01 3.33 1.02 3.66 0 4 C0.33 4.99 0.66 5.98 1 7 C-1.64 7 -4.28 7 -7 7 C-7 6.01 -7 5.02 -7 4 C-4.35261084 2.5393715 -3.10551666 2 0 2 C0 1.34 0 0.68 0 0 Z " fill="#0E3A5A" transform="translate(361,329)"/>
<path d="M0 0 C0.99 0.495 0.99 0.495 2 1 C2.33 1.99 2.66 2.98 3 4 C4.32 3.67 5.64 3.34 7 3 C6.67 5.64 6.34 8.28 6 11 C5.01 10.67 4.02 10.34 3 10 C1.25327015 6.5065403 0 3.93154432 0 0 Z " fill="#41637B" transform="translate(88,255)"/>
<path d="M0 0 C0.99 0 1.98 0 3 0 C3.66 1.65 4.32 3.3 5 5 C5.33 4.34 5.66 3.68 6 3 C6 4.65 6 6.3 6 8 C4.35 8.33 2.7 8.66 1 9 C0.67 6.03 0.34 3.06 0 0 Z " fill="#0C3D5E" transform="translate(417,253)"/>
<path d="M0 0 C1.921875 0.7265625 1.921875 0.7265625 4 2 C4.828125 4.0234375 4.828125 4.0234375 5.25 6.375 C5.39953125 7.14585937 5.5490625 7.91671875 5.703125 8.7109375 C6 11 6 11 6 15 C5.34 15 4.68 15 4 15 C3.3299166 12.87607494 2.66403203 10.75082476 2 8.625 C1.62875 7.44164062 1.2575 6.25828125 0.875 5.0390625 C0 2 0 2 0 0 Z " fill="#6092AF" transform="translate(300,229)"/>
<path d="M0 0 C0.33 0 0.66 0 1 0 C1 2.31 1 4.62 1 7 C-0.8125 7.625 -0.8125 7.625 -3 8 C-3.99 7.34 -4.98 6.68 -6 6 C-5.67 4.68 -5.34 3.36 -5 2 C-3.02 2.495 -3.02 2.495 -1 3 C-0.67 2.01 -0.34 1.02 0 0 Z " fill="#395F7A" transform="translate(216,203)"/>
<path d="M0 0 C2.64 0 5.28 0 8 0 C8 0.33 8 0.66 8 1 C6.35 1 4.7 1 3 1 C3.33 2.98 3.66 4.96 4 7 C2.68 7.33 1.36 7.66 0 8 C-0.79953138 4.71303767 -1.09658936 3.28976808 0 0 Z " fill="#39576C" transform="translate(145,203)"/>
<path d="M0 0 C0.33 0 0.66 0 1 0 C1.33 4.62 1.66 9.24 2 14 C3.32 14.33 4.64 14.66 6 15 C4.02 15.99 4.02 15.99 2 17 C2 17.66 2 18.32 2 19 C1.34 19 0.68 19 0 19 C0 12.73 0 6.46 0 0 Z " fill="#30719B" transform="translate(339,160)"/>
<path d="M0 0 C3.09494235 0 5.09351227 0.80759478 8 2 C8 3.65 8 5.3 8 7 C5.03 6.505 5.03 6.505 2 6 C1.34 4.02 0.68 2.04 0 0 Z " fill="#39607E" transform="translate(281,132)"/>
<path d="M0 0 C0.99 0.495 0.99 0.495 2 1 C2 3.31 2 5.62 2 8 C2.99 8 3.98 8 5 8 C4.67 10.31 4.34 12.62 4 15 C0.89809455 10.34714182 -0.33846504 5.58467324 0 0 Z " fill="#687F92" transform="translate(84,240)"/>
<path d="M0 0 C2.5722047 1.28610235 3.00974907 2.33393981 4 5 C3.625 7.25 3.625 7.25 3 9 C2.67 8.34 2.34 7.68 2 7 C-0.52733235 6.34444881 -0.52733235 6.34444881 -3 6 C-2 4 -1 2 0 0 Z " fill="#3C617C" transform="translate(398,134)"/>
<path d="M0 0 C-2.2370804 3.3556206 -2.42517038 3.19278041 -6 4 C-6.33 4.66 -6.66 5.32 -7 6 C-7.66 6 -8.32 6 -9 6 C-9.33 6.66 -9.66 7.32 -10 8 C-9.49396008 5.83125748 -9.00016187 4.00032373 -8 2 C-7.34 2 -6.68 2 -6 2 C-6 1.34 -6 0.68 -6 0 C-3.50907189 -1.24546405 -2.58919267 -0.7767578 0 0 Z " fill="#4E6B80" transform="translate(338,102)"/>
<path d="M0 0 C0.66 0 1.32 0 2 0 C2 0.66 2 1.32 2 2 C3.32 2.33 4.64 2.66 6 3 C6.12375 3.804375 6.2475 4.60875 6.375 5.4375 C6.684375 6.7059375 6.684375 6.7059375 7 8 C7.66 8.33 8.32 8.66 9 9 C8.01 10.485 8.01 10.485 7 12 C7 11.34 7 10.68 7 10 C6.34 10 5.68 10 5 10 C3.35 6.7 1.7 3.4 0 0 Z " fill="#516C80" transform="translate(97,276)"/>
<path d="M0 0 C5.39795989 1.15058556 10.70987333 2.42421759 16 4 C12.61981469 5.04005702 9.5219721 5.08004482 6 5 C5.67 4.01 5.34 3.02 5 2 C3.02 2 1.04 2 -1 2 C-0.67 1.34 -0.34 0.68 0 0 Z " fill="#667F91" transform="translate(241,127)"/>
<path d="M0 0 C0.66 0.33 1.32 0.66 2 1 C1.8125 2.875 1.8125 2.875 1 5 C-2.37823976 6.87679987 -5.17632299 7.21849583 -9 7 C-6.03716687 4.61327331 -3.05729491 2.2646629 0 0 Z " fill="#4E6A80" transform="translate(283,293)"/>
<path d="M0 0 C5.8997555 5.58924205 5.8997555 5.58924205 7 9 C6.625 11.25 6.625 11.25 6 13 C5.71125 12.360625 5.4225 11.72125 5.125 11.0625 C4.17176549 8.84793921 4.17176549 8.84793921 2 8 C1.3671875 6.15234375 1.3671875 6.15234375 0.875 3.9375 C0.70742188 3.20402344 0.53984375 2.47054687 0.3671875 1.71484375 C0.24601562 1.14894531 0.12484375 0.58304687 0 0 Z " fill="#577284" transform="translate(368,109)"/>
<path d="M0 0 C-2.54642509 3.11229733 -5.25510724 3.77883932 -9 5 C-9.33 5.66 -9.66 6.32 -10 7 C-10.66 6.67 -11.32 6.34 -12 6 C-11 3 -11 3 -9.00390625 1.796875 C-8.19824219 1.45140625 -7.39257812 1.1059375 -6.5625 0.75 C-5.75941406 0.39421875 -4.95632812 0.0384375 -4.12890625 -0.328125 C-2 -1 -2 -1 0 0 Z " fill="#5A7589" transform="translate(154,112)"/>
<path d="M0 0 C4.82360189 -0.19294408 8.49646738 0.24252386 13 2 C9.8250906 3.9078584 7.89414789 4.1609041 4.25 3.625 C3.45078125 3.51414062 2.6515625 3.40328125 1.828125 3.2890625 C1.22484375 3.19367188 0.6215625 3.09828125 0 3 C0 2.01 0 1.02 0 0 Z " fill="#697E8E" transform="translate(303,98)"/>
<path d="M0 0 C2.64 0.33 5.28 0.66 8 1 C8.33 1.99 8.66 2.98 9 4 C10.65 4 12.3 4 14 4 C14 4.33 14 4.66 14 5 C8.67061191 4.66328485 4.37173367 4.384568 0 1 C0 0.67 0 0.34 0 0 Z " fill="#6C8295" transform="translate(169,340)"/>
<path d="M0 0 C0.66 0 1.32 0 2 0 C3.25664978 2.90600261 4 4.79604584 4 8 C-0.875 5.375 -0.875 5.375 -2 2 C-1.34 2 -0.68 2 0 2 C0 1.34 0 0.68 0 0 Z " fill="#335772" transform="translate(142,319)"/>
<path d="M0 0 C0 1.65 0 3.3 0 5 C-2.31 5.33 -4.62 5.66 -7 6 C-6.01 5.67 -5.02 5.34 -4 5 C-4 4.01 -4 3.02 -4 2 C-4.99 1.67 -5.98 1.34 -7 1 C-2.25 0 -2.25 0 0 0 Z " fill="#2B709C" transform="translate(258,260)"/>
<path d="M0 0 C4.87685861 1.35468295 6.48592381 3.71675909 9 8 C6 8 6 8 4.39453125 6.7578125 C3.87246094 6.21898437 3.35039062 5.68015625 2.8125 5.125 C2.28269531 4.59132812 1.75289063 4.05765625 1.20703125 3.5078125 C0 2 0 2 0 0 Z " fill="#4F84A9" transform="translate(286,210)"/>
<path d="M0 0 C2.31 0 4.62 0 7 0 C6.01 0.33 5.02 0.66 4 1 C4 1.99 4 2.98 4 4 C2 6 2 6 0 7 C-1.125 2.25 -1.125 2.25 0 0 Z " fill="#345A73" transform="translate(145,181)"/>
<path d="M0 0 C1.32 0.66 2.64 1.32 4 2 C4 4.64 4 7.28 4 10 C2 7 2 7 2 5 C1.01 4.67 0.02 4.34 -1 4 C-0.67 2.68 -0.34 1.36 0 0 Z " fill="#0D3A5D" transform="translate(281,127)"/>
<path d="M0 0 C0.66 0 1.32 0 2 0 C2 3.3 2 6.6 2 10 C0.68 9.34 -0.64 8.68 -2 8 C-1.34 5.36 -0.68 2.72 0 0 Z " fill="#0D3E60" transform="translate(264,303)"/>
<path d="M0 0 C0.99 0 1.98 0 3 0 C4.38671875 1.75 4.38671875 1.75 5.6875 4 C6.12449219 4.7425 6.56148438 5.485 7.01171875 6.25 C7.33785156 6.8275 7.66398437 7.405 8 8 C5 8 5 8 2.9375 6.0625 C2.298125 5.381875 1.65875 4.70125 1 4 C0.34 3.67 -0.32 3.34 -1 3 C-0.67 2.01 -0.34 1.02 0 0 Z " fill="#06426A" transform="translate(111,280)"/>
<path d="M0 0 C1.32 0 2.64 0 4 0 C4.33 0.99 4.66 1.98 5 3 C4.00390625 4.82421875 4.00390625 4.82421875 2.5625 6.6875 C2.08941406 7.31011719 1.61632812 7.93273437 1.12890625 8.57421875 C0.75636719 9.04472656 0.38382813 9.51523438 0 10 C-1.6415049 6.7169902 -0.51888624 3.57454967 0 0 Z " fill="#0B3E5D" transform="translate(213,237)"/>
<path d="M0 0 C1.32 0.66 2.64 1.32 4 2 C3.67 3.65 3.34 5.3 3 7 C1.35 7.33 -0.3 7.66 -2 8 C-1.34 5.36 -0.68 2.72 0 0 Z " fill="#094166" transform="translate(412,192)"/>
<path d="M0 0 C2.33333333 2.33333333 4.66666667 4.66666667 7 7 C5.25 7.75 5.25 7.75 3 8 C0.6875 6.3125 0.6875 6.3125 -1 4 C-0.75 1.75 -0.75 1.75 0 0 Z " fill="#4F6A7E" transform="translate(202,183)"/>
<path d="M0 0 C0.99 0.33 1.98 0.66 3 1 C0.03 3.97 -2.94 6.94 -6 10 C-6.33 9.01 -6.66 8.02 -7 7 C-5.71034824 5.62437146 -4.37310707 4.29233607 -3 3 C-2.34 3 -1.68 3 -1 3 C-0.67 2.01 -0.34 1.02 0 0 Z " fill="#3375A0" transform="translate(231,294)"/>
<path d="M0 0 C0.66 0.66 1.32 1.32 2 2 C1.96712417 4.72869407 1.43602229 7.2966618 1 10 C-0.95418308 7.06872538 -1.64700993 5.44165321 -2 2 C-1.34 1.34 -0.68 0.68 0 0 Z " fill="#0F3F59" transform="translate(84,223)"/>
<path d="M0 0 C0.66 0 1.32 0 2 0 C1.34 1.65 0.68 3.3 0 5 C-0.66 5 -1.32 5 -2 5 C-2.66 6.32 -3.32 7.64 -4 9 C-4.33 7.68 -4.66 6.36 -5 5 C-4.34 5 -3.68 5 -3 5 C-2.5359375 4.0409375 -2.5359375 4.0409375 -2.0625 3.0625 C-1 1 -1 1 0 0 Z " fill="#4E697C" transform="translate(392,316)"/>
<path d="M0 0 C1.65 1.65 3.3 3.3 5 5 C4.01 5.33 3.02 5.66 2 6 C1.67 7.98 1.34 9.96 1 12 C0.67 12 0.34 12 0 12 C0 8.04 0 4.08 0 0 Z " fill="#32729C" transform="translate(339,247)"/>
<path d="M0 0 C0.99 0.495 0.99 0.495 2 1 C1.67 1.99 1.34 2.98 1 4 C0.67 2.68 0.34 1.36 0 0 Z M-6 3 C-3.69 3.33 -1.38 3.66 1 4 C-0.33333333 5.33333333 -1.66666667 6.66666667 -3 8 C-3.99 6.35 -4.98 4.7 -6 3 Z " fill="#5991B6" transform="translate(300,217)"/>
<path d="M0 0 C0.33 0.66 0.66 1.32 1 2 C0.01 2 -0.98 2 -2 2 C-2.33 2.99 -2.66 3.98 -3 5 C-3.99 5.33 -4.98 5.66 -6 6 C-6.66 5.67 -7.32 5.34 -8 5 C-8 4.34 -8 3.68 -8 3 C-5.08235 1.0549 -3.37462715 0.54723683 0 0 Z " fill="#36576C" transform="translate(166,105)"/>
<path d="M0 0 C-3.22791555 2.1519437 -4.28400809 2.20086443 -8 2 C-8 1.34 -8 0.68 -8 0 C-8.66 -0.33 -9.32 -0.66 -10 -1 C-5.94568308 -2.15837626 -3.78187881 -1.83691257 0 0 Z " fill="#496A84" transform="translate(370,334)"/>
<path d="M0 0 C3.12290635 0.48578543 5.99580359 0.9986012 9 2 C9.33 2.99 9.66 3.98 10 5 C6.05140217 4.4359146 3.29120954 3.2568294 0 1 C0 0.67 0 0.34 0 0 Z " fill="#5A7487" transform="translate(276,329)"/>
<path d="M0 0 C0.33 0.99 0.66 1.98 1 3 C-0.28965176 4.37562854 -1.62689293 5.70766393 -3 7 C-3.66 7 -4.32 7 -5 7 C-4.75 4.625 -4.75 4.625 -4 2 C-1.9375 0.6875 -1.9375 0.6875 0 0 Z " fill="#4A657A" transform="translate(315,324)"/>
<path d="M0 0 C1.49080078 0.29197266 1.49080078 0.29197266 3.01171875 0.58984375 C4.15060547 0.82380859 4.15060547 0.82380859 5.3125 1.0625 C5.3125 1.3925 5.3125 1.7225 5.3125 2.0625 C0.6925 2.0625 -3.9275 2.0625 -8.6875 2.0625 C-8.6875 1.4025 -8.6875 0.7425 -8.6875 0.0625 C-5.21237282 -1.09587573 -3.55079714 -0.71015943 0 0 Z " fill="#133852" transform="translate(256.6875,292.9375)"/>
<path d="M0 0 C0 0.66 0 1.32 0 2 C-3.50776784 3.60355101 -6.14354879 4.22036864 -10 4 C-10 3.34 -10 2.68 -10 2 C-3.375 0 -3.375 0 0 0 Z " fill="#3E5B75" transform="translate(272,291)"/>
<path d="M0 0 C0.33 0 0.66 0 1 0 C1.16820551 1.93736701 1.33451095 3.87489906 1.5 5.8125 C1.5928125 6.89144531 1.685625 7.97039062 1.78125 9.08203125 C2 12 2 12 2 15 C1.34 15 0.68 15 0 15 C-0.33 15.66 -0.66 16.32 -1 17 C-0.67 11.39 -0.34 5.78 0 0 Z " fill="#6E98B3" transform="translate(305,245)"/>
<path d="M0 0 C2.31 0 4.62 0 7 0 C5.515 2.475 5.515 2.475 4 5 C2.68 4.34 1.36 3.68 0 3 C0 2.01 0 1.02 0 0 Z " fill="#2F6E97" transform="translate(358,249)"/>
<path d="M0 0 C1.98 0.66 3.96 1.32 6 2 C2.375 5 2.375 5 -1 5 C-0.67 3.35 -0.34 1.7 0 0 Z " fill="#3C5D79" transform="translate(304,329)"/>
<path d="M0 0 C2 1 2 1 3 2 C3.04080783 3.99958364 3.04254356 6.00045254 3 8 C2.01 8 1.02 8 0 8 C0 5.36 0 2.72 0 0 Z " fill="#4B6576" transform="translate(145,248)"/>
<path d="M0 0 C0 0.99 0 1.98 0 3 C-1.65 3.66 -3.3 4.32 -5 5 C-4.67 4.01 -4.34 3.02 -4 2 C-5.65 2.33 -7.3 2.66 -9 3 C-6.15236477 0.15236477 -3.96383452 0 0 0 Z " fill="#4F6D85" transform="translate(117,127)"/>
<path d="M0 0 C2.1385485 2.1385485 2.42655063 3.13275314 3 6 C1.68 6.33 0.36 6.66 -1 7 C-0.67 7.99 -0.34 8.98 0 10 C-0.66 10 -1.32 10 -2 10 C-1.46274105 6.62294375 -0.88935377 3.303314 0 0 Z " fill="#5D778A" transform="translate(274,119)"/>
<path d="M0 0 C0.6875 1.6875 0.6875 1.6875 1 4 C-0.4375 6.75 -0.4375 6.75 -2 9 C-2.66 7.68 -3.32 6.36 -4 5 C-1.125 1.125 -1.125 1.125 0 0 Z " fill="#59748B" transform="translate(296,261)"/>
<path d="M0 0 C1.32 0 2.64 0 4 0 C3.34 1.98 2.68 3.96 2 6 C1.01 6 0.02 6 -1 6 C-0.67 4.02 -0.34 2.04 0 0 Z " fill="#516C80" transform="translate(429,241)"/>
<path d="M0 0 C4.875 3.625 4.875 3.625 6 7 C3 7 3 7 1 6 C0.375 2.9375 0.375 2.9375 0 0 Z " fill="#4E6A7D" transform="translate(425,201)"/>
<path d="M0 0 C0.33 0.99 0.66 1.98 1 3 C-1.17424117 5.50037734 -2.73045798 6.43628586 -6 7 C-6 6.34 -6 5.68 -6 5 C-5.34 5 -4.68 5 -4 5 C-4 4.34 -4 3.68 -4 3 C-3.34 3 -2.68 3 -2 3 C-2 2.34 -2 1.68 -2 1 C-1.34 0.67 -0.68 0.34 0 0 Z " fill="#6B8293" transform="translate(285,105)"/>
<path d="M0 0 C0.99 0 1.98 0 3 0 C3 0.66 3 1.32 3 2 C3.9590625 2.1546875 3.9590625 2.1546875 4.9375 2.3125 C5.618125 2.539375 6.29875 2.76625 7 3 C7.33 3.99 7.66 4.98 8 6 C5.0280615 4.87548273 2.66559313 3.77706209 0 2 C0 1.34 0 0.68 0 0 Z " fill="#576F83" transform="translate(153,330)"/>
<path d="M0 0 C0.66 0.33 1.32 0.66 2 1 C1.67 1.99 1.34 2.98 1 4 C-2.28976808 5.09658936 -3.71303767 4.79953138 -7 4 C-6.1028125 3.566875 -6.1028125 3.566875 -5.1875 3.125 C-2.80672208 1.95257974 -2.80672208 1.95257974 0 0 Z " fill="#2C6F9C" transform="translate(291,297)"/>
<path d="M0 0 C3.24732932 1.62366466 3.70155136 4.75387839 5 8 C3.68 8 2.36 8 1 8 C0.67 5.36 0.34 2.72 0 0 Z " fill="#5283A9" transform="translate(247,268)"/>
<path d="M0 0 C0.66 0.33 1.32 0.66 2 1 C1.25 2.9375 1.25 2.9375 0 5 C-2.125 5.75 -2.125 5.75 -4 6 C-4.33 5.34 -4.66 4.68 -5 4 C-4.34 4 -3.68 4 -3 4 C-3 3.34 -3 2.68 -3 2 C-2.01 2 -1.02 2 0 2 C0 1.34 0 0.68 0 0 Z " fill="#084164" transform="translate(202,326)"/>
<path d="M0 0 C1.32 0.33 2.64 0.66 4 1 C2.35 2.98 0.7 4.96 -1 7 C-1.33 6.01 -1.66 5.02 -2 4 C-1.34 4 -0.68 4 0 4 C0 2.68 0 1.36 0 0 Z " fill="#5D7A8A" transform="translate(285,278)"/>
<path d="M0 0 C2.42115191 2.42115191 2.60948898 3.64160525 3 7 C2.5625 9.8125 2.5625 9.8125 2 12 C1.67 12 1.34 12 1 12 C0.67 8.04 0.34 4.08 0 0 Z " fill="#79909F" transform="translate(82,228)"/>
<path d="M0 0 C2 2 2 2 2 6 C0.68 6 -0.64 6 -2 6 C-1.125 1.125 -1.125 1.125 0 0 Z " fill="#0F3A59" transform="translate(421,191)"/>
<path d="M0 0 C1.32 0.66 2.64 1.32 4 2 C3.34 2 2.68 2 2 2 C2 2.66 2 3.32 2 4 C2.66 4.33 3.32 4.66 4 5 C2.35 5.66 0.7 6.32 -1 7 C-0.67 4.69 -0.34 2.38 0 0 Z " fill="#3E637E" transform="translate(202,110)"/>
<path d="M0 0 C0.66 0 1.32 0 2 0 C1.67 1.32 1.34 2.64 1 4 C0.34 4 -0.32 4 -1 4 C-1.33 4.66 -1.66 5.32 -2 6 C-2.66 5.34 -3.32 4.68 -4 4 C-3.34 4 -2.68 4 -2 4 C-1.34 2.68 -0.68 1.36 0 0 Z " fill="#2C6D99" transform="translate(378,241)"/>
<path d="M0 0 C0.33 0.99 0.66 1.98 1 3 C-1.97 5.475 -1.97 5.475 -5 8 C-5.66 7.67 -6.32 7.34 -7 7 C-4.69 4.69 -2.38 2.38 0 0 Z " fill="#2F719C" transform="translate(386,211)"/>
<path d="M0 0 C0.99 0.33 1.98 0.66 3 1 C2.67 1.99 2.34 2.98 2 4 C2.66 4 3.32 4 4 4 C4 4.66 4 5.32 4 6 C2.35 6 0.7 6 -1 6 C-0.67 4.02 -0.34 2.04 0 0 Z " fill="#295877" transform="translate(221,119)"/>
<path d="M0 0 C2.9719385 1.12451727 5.33440687 2.22293791 8 4 C6.35 4.33 4.7 4.66 3 5 C2.01 3.35 1.02 1.7 0 0 Z " fill="#637C91" transform="translate(206,112)"/>
<path d="M0 0 C0.66 1.32 1.32 2.64 2 4 C0.625 5.5 0.625 5.5 -1 7 C-1.66 7 -2.32 7 -3 7 C-1.125 2.25 -1.125 2.25 0 0 Z " fill="#496378" transform="translate(278,112)"/>
</svg>
